<?xml version="1.0" encoding="UTF-8"?>
<svg version="1.1" xmlns="http://www.w3.org/2000/svg" width="1024" height="1024">
<path d="M0 0 C4.41373132 3.32900074 7.10270765 7.81797617 8.5 13.125 C9.7149489 22.95403607 6.78720836 32.28337924 4.3125 41.6875 C3.85833874 43.45373317 3.40532769 45.22026244 2.95336914 46.98706055 C1.73502774 51.73444529 0.49994563 56.47730481 -0.74035645 61.21899414 C-1.98573915 65.98318837 -3.2226372 70.74958606 -4.4609375 75.515625 C-6.03516115 81.57118149 -7.61142448 87.62619341 -9.19262695 93.67993164 C-14.02246449 112.18858446 -18.7272489 130.72805915 -23.41816711 149.27225494 C-28.65384868 169.96889962 -33.94692552 190.64907148 -39.3125 211.3125 C-43.72040101 228.2943701 -48.07634904 245.28694249 -52.3125 262.3125 C-71.58503561 339.76210033 -91.22796186 417.13985074 -111.69384766 494.28320312 C-112.82808152 498.5625188 -113.94652377 502.84546286 -115.05006504 507.13276291 C-115.75554047 509.86828362 -116.46816249 512.60191723 -117.1817379 515.33533478 C-117.68398546 517.26946244 -118.17707604 519.20596074 -118.6698761 521.14251709 C-121.21532385 530.85963309 -123.69390431 539.44665077 -132.5 545.125 C-137.92846692 547.4371248 -142.85014933 547.7170822 -148.5 546.125 C-154.01541127 543.8082473 -159.23356026 540.95383575 -164.5 538.125 C-166.92810106 536.83149366 -169.35649609 535.53854914 -171.78515625 534.24609375 C-175.72315687 532.1496426 -179.65949737 530.05030218 -183.58862305 527.93725586 C-190.34338692 524.308804 -197.12785929 520.76564804 -204.01513672 517.39257812 C-206.8830077 515.92962016 -209.56260312 514.27369386 -212.265625 512.53125 C-223.38470309 505.53322883 -235.22291593 498.83464491 -247.5 494.125 C-247.5 493.465 -247.5 492.805 -247.5 492.125 C-248.20125 491.856875 -248.9025 491.58875 -249.625 491.3125 C-252.6649824 490.0568551 -255.5727774 488.62264877 -258.5 487.125 C-259.16 487.785 -259.82 488.445 -260.5 489.125 C-260.5 487.805 -260.5 486.485 -260.5 485.125 C-261.20342529 484.85929199 -261.90685059 484.59358398 -262.6315918 484.31982422 C-265.6722564 483.05324727 -268.50118161 481.58173206 -271.39453125 480.0078125 C-272.51537109 479.40066406 -273.63621094 478.79351563 -274.79101562 478.16796875 C-275.96494478 477.52883136 -277.13877227 476.88950722 -278.3125 476.25 C-289.93660385 468.82109824 -289.93660385 468.82109824 -302.6875 465.0625 C-306.23378911 466.40220922 -308.08776251 468.32680452 -310.5 471.125 C-311.15871094 471.84042969 -311.81742188 472.55585937 -312.49609375 473.29296875 C-316.41457235 477.5645858 -320.17939051 481.92083938 -323.8125 486.4375 C-327.70191158 491.2500529 -331.8274325 495.7709852 -336.0534668 500.28393555 C-339.99468246 504.51648848 -343.65834925 508.92465749 -347.28125 513.43359375 C-350.44548952 517.27190542 -353.80430375 520.91868488 -357.16796875 524.58203125 C-361.28708527 529.07373118 -365.27882461 533.66631503 -369.19921875 538.33203125 C-369.92250366 539.19175537 -369.92250366 539.19175537 -370.66040039 540.06884766 C-371.61111358 541.2007019 -372.55965098 542.33438862 -373.50561523 543.47021484 C-379.64047344 550.78130107 -384.91486977 556.4918144 -394.75 557.4375 C-400.21602645 556.9819978 -404.26688247 555.48263447 -408.09814453 551.43774414 C-413.12351575 544.51639954 -414.16160326 537.31752366 -415.3125 529 C-415.51552176 527.65463599 -415.72058835 526.30957892 -415.92773438 524.96484375 C-416.66581595 520.08814637 -417.35823443 515.20735893 -417.9987793 510.31689453 C-418.31698778 507.23848376 -418.31698778 507.23848376 -419.5 505.125 C-419.64930506 503.44813067 -419.75340941 501.7672203 -419.83984375 500.0859375 C-420.31020752 493.39775133 -421.18070477 486.8002784 -422.12890625 480.1640625 C-422.2833017 479.08276062 -422.43769714 478.00145874 -422.59677124 476.88739014 C-423.24755674 472.35794959 -423.90544999 467.82955643 -424.56420898 463.30126953 C-425.04814291 459.96443445 -425.52622236 456.62679711 -426.00390625 453.2890625 C-426.15388565 452.27228424 -426.30386505 451.25550598 -426.45838928 450.20791626 C-427.18491147 445.12159294 -427.67144595 440.26300674 -427.5 435.125 C-428.49 435.125 -429.48 435.125 -430.5 435.125 C-430.29761719 434.2484375 -430.09523438 433.371875 -429.88671875 432.46875 C-429.03570158 426.47999906 -430.3733089 420.54031206 -431.3125 414.625 C-431.58030273 412.82869141 -431.58030273 412.82869141 -431.85351562 410.99609375 C-432.35954941 407.69682652 -432.92035444 404.41199472 -433.5 401.125 C-433.59974121 400.39023437 -433.69948242 399.65546875 -433.80224609 398.8984375 C-434.28430114 396.29745145 -435.03829993 394.52272215 -437.05395508 392.78637695 C-439.14708774 391.42377936 -441.27845495 390.26600712 -443.5 389.125 C-444.27988281 388.70009277 -445.05976563 388.27518555 -445.86328125 387.83740234 C-448.39479019 386.46717771 -450.94373656 385.13592543 -453.5 383.8125 C-454.8907373 383.08812744 -454.8907373 383.08812744 -456.30957031 382.34912109 C-462.21941852 379.28003642 -468.15901255 376.27712342 -474.12573242 373.32055664 C-492.69978483 364.08316899 -511.00042891 354.27439939 -529.33203125 344.56640625 C-536.93922327 340.5423893 -544.55837921 336.54824294 -552.25 332.6875 C-552.88123779 332.36958496 -553.51247559 332.05166992 -554.1628418 331.72412109 C-557.06068761 330.28005318 -559.95469701 328.93931491 -562.953125 327.71484375 C-565.62007849 326.51941416 -567.80389254 325.36309319 -570.23046875 323.80078125 C-575.23017245 320.58539428 -580.49682726 317.9614946 -585.8125 315.3125 C-586.80056641 314.81041016 -587.78863281 314.30832031 -588.80664062 313.79101562 C-589.75345703 313.31728516 -590.70027344 312.84355469 -591.67578125 312.35546875 C-592.53083252 311.92645264 -593.38588379 311.49743652 -594.2668457 311.05541992 C-596.55833844 309.93270306 -596.55833844 309.93270306 -599.5 310.125 C-600.53074683 309.15672268 -601.52678248 308.15108365 -602.5 307.125 C-603.92292726 306.20619554 -605.36185882 305.31189339 -606.8125 304.4375 C-611.44189312 301.35123792 -615.15481079 298.26671673 -617.5 293.125 C-618.61807831 287.18791748 -618.17095267 281.21949031 -614.94580078 276.00805664 C-608.39611484 267.47753863 -594.9986036 263.51124718 -585.5 259.1875 C-583.65946043 258.34283306 -581.81921335 257.49752848 -579.97924805 256.65161133 C-574.49117815 254.13169948 -568.99662818 251.62617957 -563.5 249.125 C-562.31667084 248.58631287 -562.31667084 248.58631287 -561.10943604 248.03674316 C-555.51365732 245.48990685 -549.91590173 242.94743386 -544.31713867 240.40716553 C-534.70770974 236.04695961 -525.10220145 231.67834344 -515.5249939 227.24771118 C-514.18586903 226.62925769 -512.84573308 226.0129883 -511.50454712 225.39901733 C-509.66691999 224.55720597 -507.83334307 223.70656981 -506 222.85546875 C-504.9584375 222.37489014 -503.916875 221.89431152 -502.84375 221.39916992 C-500.37141831 220.34467756 -500.37141831 220.34467756 -499.5 218.125 C-497.50040309 217.78925706 -495.50031926 217.45641211 -493.5 217.125 C-491.32775933 216.24595964 -489.1867307 215.28765382 -487.07421875 214.2734375 C-486.4630722 213.98310638 -485.85192566 213.69277527 -485.22225952 213.39364624 C-483.90106053 212.76524459 -482.58142439 212.13354856 -481.26321411 211.49890137 C-477.66480431 209.76722914 -474.0542124 208.06123488 -470.4453125 206.3515625 C-469.69953445 205.99747314 -468.95375641 205.64338379 -468.18537903 205.27856445 C-460.68384773 201.72293764 -453.12849385 198.29074723 -445.5625 194.875 C-436.16674384 190.63021384 -426.7922021 186.34369193 -417.4453125 181.9921875 C-416.04094185 181.33881409 -416.04094185 181.33881409 -414.60820007 180.67224121 C-409.98727803 178.52163187 -405.36841374 176.36674529 -400.75219727 174.20605469 C-399.06792701 173.42110397 -397.38360347 172.63626757 -395.69921875 171.8515625 C-394.92784576 171.4887619 -394.15647278 171.1259613 -393.36172485 170.75216675 C-392.28874649 170.25343552 -392.28874649 170.25343552 -391.1940918 169.74462891 C-390.57414841 169.45455963 -389.95420502 169.16449036 -389.31547546 168.8656311 C-387.5 168.125 -387.5 168.125 -385.33161926 167.64877319 C-384.72718491 167.47592804 -384.12275055 167.30308289 -383.5 167.125 C-383.17 166.465 -382.84 165.805 -382.5 165.125 C-379.87383124 163.95013503 -377.22955415 163.03485138 -374.5 162.125 C-372.70474501 161.32520877 -370.91818007 160.50584272 -369.13671875 159.67578125 C-368.03714844 159.1643457 -366.93757812 158.65291016 -365.8046875 158.12597656 C-364.61101562 157.5687793 -363.41734375 157.01158203 -362.1875 156.4375 C-360.93626566 155.85499769 -359.68496235 155.27264352 -358.43359375 154.69042969 C-351.84397199 151.62311133 -345.25919769 148.5454534 -338.67578125 145.46484375 C-336.11731388 144.26795879 -333.55871124 143.07136353 -331 141.875 C-330.05353607 141.43238831 -330.05353607 141.43238831 -329.08795166 140.98083496 C-320.55706992 136.99341714 -312.00782674 133.05176591 -303.40234375 129.22753906 C-298.73242082 127.14890639 -294.09383308 125.00792972 -289.46484375 122.83984375 C-280.64606462 118.71058044 -271.77737756 114.69355373 -262.90673828 110.67724609 C-253.68062392 106.49844774 -244.47946088 102.27164571 -235.30877686 97.97253418 C-232.35960554 96.59064814 -229.4081966 95.21355873 -226.45703125 93.8359375 C-224.71486328 93.02237793 -224.71486328 93.02237793 -222.9375 92.19238281 C-207.13538966 84.81425501 -191.33120333 77.44054421 -175.5 70.125 C-174.40397461 69.6182373 -173.30794922 69.11147461 -172.17871094 68.58935547 C-169.0796078 67.159036 -165.97789383 65.73457411 -162.875 64.3125 C-161.95009766 63.88549805 -161.02519531 63.45849609 -160.07226562 63.01855469 C-159.23115234 62.63473633 -158.39003906 62.25091797 -157.5234375 61.85546875 C-156.79044434 61.51926514 -156.05745117 61.18306152 -155.30224609 60.83666992 C-153.5 60.125 -153.5 60.125 -151.5 60.125 C-151.17 59.465 -150.84 58.805 -150.5 58.125 C-148.51435565 57.41671972 -146.5113849 56.75648653 -144.5 56.125 C-142.6601455 55.32894596 -140.83347366 54.50188905 -139.01953125 53.6484375 C-137.95694092 53.15126221 -136.89435059 52.65408691 -135.79956055 52.1418457 C-134.64883057 51.60003662 -133.49810059 51.05822754 -132.3125 50.5 C-129.77437057 49.31180177 -127.23490005 48.12648423 -124.6953125 46.94140625 C-124.0306749 46.63097885 -123.36603729 46.32055145 -122.68125916 46.00071716 C-115.03723022 42.4346604 -107.36248837 38.93628532 -99.6875 35.4375 C-89.42730735 30.75907201 -79.17762911 26.05922982 -68.94636536 21.31782532 C-62.36980136 18.2704529 -55.78586212 15.23937951 -49.19841003 12.21562195 C-45.02562846 10.29748826 -40.86451491 8.35781409 -36.7170105 6.38563538 C-33.94454811 5.07276786 -31.15854152 3.78917158 -28.375 2.5 C-27.44155762 2.04455811 -26.50811523 1.58911621 -25.54638672 1.11987305 C-17.56589888 -2.51839747 -8.13244529 -4.09924882 0 0 Z " fill="#0196F4" transform="translate(847.5,189.875)"/>
<path d="M0 0 C1.5799138 3.15982759 0.0630178 6.0241544 -0.87890625 9.26171875 C-1.08596695 9.99537659 -1.29302765 10.72903442 -1.50636292 11.48492432 C-1.95275303 13.06405775 -2.40235354 14.64228642 -2.85479736 16.21969604 C-4.04098924 20.35602232 -5.20438147 24.49877095 -6.37109375 28.640625 C-6.60235962 29.4590538 -6.83362549 30.2774826 -7.07189941 31.12071228 C-8.83534473 37.37319668 -10.51453497 43.64378183 -12.125 49.9375 C-14.68166743 59.90035023 -17.42171786 69.80861281 -20.17578125 79.71850586 C-22.21567003 87.08307537 -24.14184997 94.45647439 -25.94726562 101.88183594 C-27.1114797 106.53099335 -28.44845017 111.12737255 -29.78125 115.73046875 C-32.75083149 126.06380897 -35.60413303 136.42422105 -38.375 146.8125 C-38.6226712 147.74031281 -38.87034241 148.66812561 -39.1255188 149.62405396 C-49.53556871 188.71098362 -59.13563723 228.01793797 -68.55300903 267.35415649 C-73.67361526 288.74254233 -78.97805504 310.08150121 -84.34326172 331.40966797 C-87.05061964 342.17487812 -89.74706289 352.94282525 -92.44157028 363.71125793 C-93.57199173 368.22862355 -94.70444285 372.74547713 -95.83740234 377.26220703 C-96.4424967 379.67868242 -97.04747982 382.09518567 -97.65234375 384.51171875 C-97.94185913 385.6652887 -98.23137451 386.81885864 -98.52966309 388.00738525 C-99.89245814 393.46080916 -101.22384629 398.91814372 -102.48095703 404.39697266 C-102.82194176 405.87518242 -102.82194176 405.87518242 -103.16981506 407.383255 C-103.58955216 409.21631995 -104.00212085 411.05104659 -104.40623474 412.88761902 C-104.87596638 414.94013668 -105.42928325 416.9732393 -106 419 C-106.66 419.33 -107.32 419.66 -108 420 C-109.76147461 419.35424805 -109.76147461 419.35424805 -111.90234375 418.26171875 C-112.69954834 417.85928955 -113.49675293 417.45686035 -114.31811523 417.04223633 C-115.18251221 416.59517334 -116.04690918 416.14811035 -116.9375 415.6875 C-117.83992432 415.22819092 -118.74234863 414.76888184 -119.67211914 414.2956543 C-126.2183224 410.95197597 -132.73051132 407.54260809 -139.22509766 404.09985352 C-144.09047463 401.52212134 -148.97118493 398.97608445 -153.8671875 396.45703125 C-154.77206406 395.99132217 -154.77206406 395.99132217 -155.69522095 395.51620483 C-156.6125148 395.04412094 -156.6125148 395.04412094 -157.54833984 394.5625 C-167.53298633 389.42380718 -177.4816472 384.24225817 -187.3125 378.8125 C-195.84571352 374.10245599 -204.50217286 369.69079874 -213.23583984 365.36523438 C-219.51043621 362.25501269 -225.74523279 359.08360882 -231.9375 355.8125 C-232.69861084 355.411521 -233.45972168 355.01054199 -234.24389648 354.59741211 C-238.08283537 352.56780409 -241.90315809 350.50867507 -245.70703125 348.4140625 C-246.8528064 347.78987427 -246.8528064 347.78987427 -248.02172852 347.15307617 C-249.45568489 346.37081817 -250.88500391 345.57996666 -252.30834961 344.77856445 C-256.49603398 342.5026831 -260.12335341 340.99420137 -265 341 C-267.44075411 342.57586319 -267.44075411 342.57586319 -269.3125 345.125 C-270.07433594 346.04925781 -270.83617187 346.97351563 -271.62109375 347.92578125 C-272.40613281 348.94027344 -273.19117188 349.95476562 -274 351 C-274.79535156 352.02480469 -275.59070313 353.04960938 -276.41015625 354.10546875 C-277.65460237 355.71970448 -278.89380596 357.33735034 -280.1237793 358.96264648 C-283.60800306 363.55612784 -287.28744859 367.9552287 -291.03466797 372.33520508 C-293.74997887 375.51235913 -296.40603634 378.7231357 -299 382 C-303.85597254 388.12231446 -308.92144157 394.06222926 -314 400 C-314.90878906 401.06347656 -314.90878906 401.06347656 -315.8359375 402.1484375 C-318.52150464 405.25321512 -321.26656471 408.29554758 -324.05859375 411.3046875 C-324.60394775 411.8925 -325.14930176 412.4803125 -325.71118164 413.0859375 C-326.80556883 414.26270483 -327.90234884 415.43725216 -329.00170898 416.609375 C-331.82557916 419.56797252 -331.82557916 419.56797252 -334 423 C-334.66 423 -335.32 423 -336 423 C-338.96385507 397.48447617 -341.91550561 371.96776537 -344.75 346.4375 C-344.85041595 345.53448151 -344.95083191 344.63146301 -345.05429077 343.70108032 C-345.61794723 338.6277074 -346.17631473 333.55379293 -346.72875977 328.47918701 C-347.01051618 325.90388009 -347.29732254 323.32915959 -347.58398438 320.75439453 C-347.7697651 319.05634067 -347.95532024 317.35826212 -348.140625 315.66015625 C-348.22737488 314.89118515 -348.31412476 314.12221405 -348.40350342 313.3299408 C-349.71303387 301.18271147 -349.71303387 301.18271147 -347.85546875 298.1015625 C-347.30503906 297.61429688 -346.75460937 297.12703125 -346.1875 296.625 C-345.54296875 296.04234375 -344.8984375 295.4596875 -344.234375 294.859375 C-340.87978146 292.06779016 -337.49130399 289.32017028 -334.08984375 286.5859375 C-330.58606604 283.70714572 -327.29916942 280.60872043 -324 277.5 C-319.09590308 272.88745863 -314.08603191 268.51238358 -308.83203125 264.296875 C-305.56755568 261.64927275 -302.37372341 258.92832791 -299.1875 256.1875 C-298.60057373 255.68299316 -298.01364746 255.17848633 -297.40893555 254.65869141 C-295.60509902 253.10678736 -293.80235699 251.55362201 -292 250 C-289.60549562 247.93595013 -287.20991718 245.87316615 -284.8125 243.8125 C-283.93718628 243.05984863 -283.93718628 243.05984863 -283.04418945 242.29199219 C-279.5324454 239.28263155 -275.97557917 236.34069296 -272.375 233.4375 C-268.45321395 230.25751806 -264.69754785 226.93580599 -261 223.5 C-256.44191182 219.26456957 -251.74124158 215.26943984 -246.8984375 211.36328125 C-238.60630812 204.60217845 -230.58175454 197.50977052 -222.5 190.5 C-203.11444467 173.68579294 -203.11444467 173.68579294 -195.25 167.3125 C-190.87492253 163.76254679 -186.69450808 160.04436179 -182.53125 156.25 C-179.9115519 153.92137947 -177.2248469 151.70437053 -174.5 149.5 C-169.97400672 145.83579669 -165.62436929 142.02241167 -161.31640625 138.10546875 C-150.75855353 128.50903938 -139.79263263 119.34789659 -128.89355469 110.14331055 C-123.15767889 105.29554241 -117.4593173 100.40435856 -111.76171875 95.51171875 C-110.0195026 94.01673505 -108.27567336 92.52365734 -106.53125 91.03125 C-99.86854669 85.32988362 -93.22797843 79.60399983 -86.60571289 73.85571289 C-81.84573182 69.72637235 -77.06568494 65.62109333 -72.27612305 61.52612305 C-68.58249327 58.36528337 -64.90772664 55.18369282 -61.24121094 51.99145508 C-56.30047632 47.69051432 -51.3461065 43.42998008 -46.25 39.3125 C-42.55182463 36.32004153 -39.00193029 33.21999522 -35.5 30 C-31.09327309 25.94905699 -26.55787124 22.12377189 -21.90234375 18.36328125 C-18.08794437 15.25734367 -14.33864667 12.07791567 -10.59033203 8.89282227 C-7.07702999 5.90779048 -3.54548979 2.9466253 0 0 Z " fill="#49BCF8" transform="translate(801,270)"/>
<path d="M0 0 C-1.32451172 1.12535156 -1.32451172 1.12535156 -2.67578125 2.2734375 C-9.40632007 8.00787165 -16.0495827 13.80863952 -22.5703125 19.78125 C-27.12880305 23.94398735 -31.805788 27.96824771 -36.4765625 32.00390625 C-37.77617566 33.12744919 -39.07565075 34.25115186 -40.375 35.375 C-41.03266357 35.94379883 -41.69032715 36.51259766 -42.36791992 37.09863281 C-45.9665739 40.21731716 -49.5358194 43.36225595 -53.0625 46.5625 C-58.04980643 51.08070335 -63.16080256 55.44618554 -68.27734375 59.81640625 C-77.21498795 67.45187712 -86.10635185 75.13642236 -94.81640625 83.03125 C-96.81737985 84.83534784 -98.8395031 86.61007017 -100.875 88.375 C-103.72261041 90.85018652 -106.50710086 93.38507538 -109.27416992 95.94995117 C-114.46295001 100.75663414 -119.77235262 105.31677162 -125.28515625 109.75390625 C-128.10673495 112.0883059 -130.80590712 114.51990598 -133.5 117 C-137.94727112 121.09351091 -142.54717463 124.92442499 -147.25 128.71875 C-151.03905407 131.86194258 -154.63269352 135.20158595 -158.25390625 138.53515625 C-160.91875166 140.92707297 -163.64831825 143.19254884 -166.4375 145.4375 C-170.43223986 148.65943101 -174.24554349 152.00655495 -178 155.5 C-182.60870911 159.78830964 -187.37464955 163.80216056 -192.28125 167.75 C-195.12657378 170.10475071 -197.8464629 172.5600838 -200.5625 175.0625 C-204.72647839 178.89572266 -209.02324512 182.44795075 -213.47265625 185.94140625 C-216.22232576 188.18109069 -218.82846711 190.53570944 -221.4375 192.9375 C-225.82564843 196.97582401 -230.34510842 200.77498036 -234.984375 204.51953125 C-238.5466972 207.44967969 -242.02481682 210.46750975 -245.5 213.5 C-249.85998024 217.30457572 -254.24633269 221.0523971 -258.75 224.6875 C-263.4140886 228.46154803 -267.82732762 232.4585644 -272.23828125 236.5234375 C-274.98652914 238.98792005 -277.80920868 241.31442683 -280.6875 243.625 C-283.97752317 246.27749393 -287.05737929 248.96748253 -290 252 C-293.80883815 255.9176621 -297.92037478 259.33832014 -302.1875 262.74609375 C-304.06529062 264.25093429 -305.91982759 265.78525054 -307.75 267.34765625 C-308.61625 268.07855469 -309.4825 268.80945313 -310.375 269.5625 C-311.14585937 270.22378906 -311.91671875 270.88507813 -312.7109375 271.56640625 C-315.56838604 273.35596873 -316.67381218 273.57596326 -320 273 C-322.73961627 271.73303926 -325.31076398 270.40801953 -327.9375 268.9375 C-329.62846271 268.01891471 -331.32130851 267.10379074 -333.015625 266.19140625 C-333.95599609 265.68496582 -334.89636719 265.17852539 -335.86523438 264.65673828 C-341.91903251 261.45727768 -348.05718944 258.42451354 -354.1875 255.375 C-355.42117133 254.760393 -356.65481442 254.1457293 -357.88842773 253.53100586 C-360.35478016 252.30240889 -362.82168444 251.07492717 -365.28881836 249.84790039 C-368.88823568 248.05689504 -372.4832988 246.25722906 -376.078125 244.45703125 C-381.84152556 241.57142259 -387.61270719 238.70170234 -393.38693523 235.83782196 C-398.47201054 233.31551698 -403.55481712 230.78867246 -408.63647175 228.25948334 C-411.94627688 226.61245546 -415.25720522 224.9677644 -418.57055664 223.32788086 C-421.82714209 221.7159595 -425.0807064 220.09808364 -428.33231926 218.47615623 C-430.14426861 217.57424438 -431.95925118 216.67843441 -433.77430725 215.78279114 C-439.5533207 212.89387479 -444.88768625 209.95918808 -450 206 C-446.86634539 203.44769787 -443.69095723 201.81968419 -440.00390625 200.1796875 C-438.81611572 199.64899658 -437.6283252 199.11830566 -436.40454102 198.5715332 C-435.12394186 198.00583833 -433.84325963 197.44033146 -432.5625 196.875 C-431.2432787 196.28829567 -429.92418799 195.70129762 -428.60522461 195.11401367 C-420.26961901 191.41013061 -411.89971647 187.79085257 -403.50366211 184.22607422 C-397.66794752 181.74004521 -391.88894283 179.14772251 -386.125 176.5 C-376.7492058 172.19515729 -367.30007621 168.07110539 -357.8347168 163.96844482 C-340.58783096 156.49148326 -323.45470854 148.79671644 -306.38122559 140.93276978 C-299.27749007 137.66246121 -292.15644785 134.43064836 -285.03414917 131.20101929 C-261.14051955 120.36310566 -237.35039221 109.31331893 -213.62109375 98.12077332 C-208.46713154 95.69021484 -203.31043248 93.26553752 -198.15234375 90.84375 C-195.2472947 89.47938188 -192.34235474 88.11478177 -189.4375 86.75 C-188.72280548 86.41424957 -188.00811096 86.07849915 -187.27175903 85.73257446 C-178.30246584 81.51720396 -169.35846375 77.25444881 -160.4375 72.9375 C-150.24399796 68.00886588 -139.94917312 63.32487156 -129.62976074 58.66824341 C-118.53555462 53.65750837 -107.55066281 48.45798778 -96.60473633 43.1315918 C-83.21088046 36.62169808 -69.69064465 30.39070994 -56.1675415 24.1550293 C-33.89087637 13.8894199 -33.89087637 13.8894199 -11.94726562 2.93408203 C-11.24794922 2.57556152 -10.54863281 2.21704102 -9.828125 1.84765625 C-9.19293945 1.51902588 -8.55775391 1.19039551 -7.90332031 0.85180664 C-2.83389739 -1.41694869 -2.83389739 -1.41694869 0 0 Z " fill="#49BCF9" transform="translate(741,271)"/>
<path d="M0 0 C7.80511575 5.60051288 11.84674299 14.3206249 13.7265625 23.59765625 C15.20393367 35.26431927 11.65093387 44.64507267 5.4765625 54.34765625 C-2.12169899 61.94591774 -11.19507483 65.90569962 -21.828125 66.67578125 C-27.8370778 66.51639258 -33.45455927 64.55900271 -39.18652344 62.89868164 C-42.39646003 62.52515844 -43.3040211 63.12717501 -45.890625 64.9921875 C-46.65568359 65.53117676 -47.42074219 66.07016602 -48.20898438 66.62548828 C-49.01400391 67.21442871 -49.81902344 67.80336914 -50.6484375 68.41015625 C-52.34305087 69.61296477 -54.03837296 70.81477535 -55.734375 72.015625 C-56.57838867 72.61938965 -57.42240234 73.2231543 -58.29199219 73.84521484 C-62.50217487 76.81852174 -66.81988629 79.6268532 -71.14013672 82.43676758 C-75.40896413 85.04347984 -75.40896413 85.04347984 -78.7734375 88.59765625 C-79.02441955 91.62564903 -79.02441955 91.62564903 -78.7734375 95.03515625 C-78.55082916 107.04363944 -81.34501946 117.66348275 -89.66015625 126.6328125 C-99.12168151 135.38797635 -109.42711119 138.05698521 -122.18359375 137.84375 C-126.63884182 137.53833038 -129.90546966 136.78895134 -133.7734375 134.59765625 C-134.49789062 134.19546875 -135.22234375 133.79328125 -135.96875 133.37890625 C-145.49646491 127.56538529 -152.2921089 119.53113359 -155.296875 108.71313477 C-156.06530427 105.30204891 -156.14831428 101.82945109 -156.3359375 98.34765625 C-156.37912109 97.60257813 -156.42230469 96.8575 -156.46679688 96.08984375 C-156.57240475 94.25930725 -156.67337951 92.42850449 -156.7734375 90.59765625 C-156.1134375 90.59765625 -155.4534375 90.59765625 -154.7734375 90.59765625 C-154.6909375 89.60765625 -154.6084375 88.61765625 -154.5234375 87.59765625 C-153.32831172 79.5709331 -148.66116869 73.00498432 -142.7734375 67.59765625 C-132.73321269 60.40560932 -123.01534054 58.25521001 -110.7734375 59.59765625 C-106.90975717 60.58365319 -103.39529465 61.9489498 -99.7734375 63.59765625 C-98.7834375 63.92765625 -97.7934375 64.25765625 -96.7734375 64.59765625 C-94.25814553 63.27157729 -91.95643632 61.90027359 -89.5859375 60.34765625 C-88.88484863 59.89890137 -88.18375977 59.45014648 -87.46142578 58.98779297 C-80.36958998 54.4141987 -73.37960547 49.66942298 -66.51000977 44.76806641 C-64.7734375 43.59765625 -64.7734375 43.59765625 -61.32421875 41.75390625 C-58.39373141 39.76498847 -58.39373141 39.76498847 -58.29296875 36.05859375 C-58.36609476 34.69507749 -58.46498957 33.33276492 -58.5859375 31.97265625 C-59.0471724 21.15559968 -56.75684814 13.09782576 -49.7734375 4.59765625 C-35.63401908 -10.49632207 -16.92147005 -10.33477405 0 0 Z M-32.7734375 20.59765625 C-35.09621604 24.50414743 -35.24467443 28.12090546 -34.7734375 32.59765625 C-33.01849669 35.69805168 -31.28518083 38.08591292 -28.7734375 40.59765625 C-24.24685947 41.66320471 -20.156288 42.18610327 -15.8359375 40.34765625 C-11.6722431 36.81482463 -9.99775092 34.97537854 -9.4609375 29.28515625 C-9.83552896 24.86497704 -10.93729737 22.97036344 -13.7734375 19.59765625 C-17.23431585 16.71359096 -20.25882908 16.05817821 -24.77734375 16.24609375 C-28.17021591 16.84366419 -30.22554902 18.35308783 -32.7734375 20.59765625 Z M-130.6484375 90.84765625 C-132.68532842 95.82672295 -132.38230271 99.93128831 -130.5859375 104.84765625 C-127.60486021 109.37067007 -125.23818991 111.2134589 -119.9609375 112.59765625 C-115.16280413 112.98841332 -111.67456197 111.25833101 -107.7734375 108.59765625 C-104.3708813 105.63413956 -104.10959079 102.09264906 -103.77734375 97.7734375 C-103.7692158 93.24617204 -105.27795205 91.14269025 -108.2734375 87.84765625 C-112.26583134 84.2545018 -115.00396403 84.25607142 -120.23046875 84.31640625 C-125.01375074 84.84543283 -127.66590896 87.268622 -130.6484375 90.84765625 Z " fill="#0297F5" transform="translate(332.7734375,580.40234375)"/>
<path d="M0 0 C4.3947983 2.99645338 6.25148625 6.19251608 7.75 11.25 C7.75 19.53495071 2.06281298 25.19016397 -3.44970703 30.81420898 C-4.50567676 31.9129354 -4.50567676 31.9129354 -5.5829792 33.0338583 C-7.79371566 35.3258651 -10.01926484 37.6024647 -12.25 39.875 C-12.93713829 40.57730366 -13.62427658 41.27960732 -14.33223724 42.0031929 C-19.2103257 46.98081012 -24.12785116 51.9183499 -29.0546875 56.84765625 C-30.59651452 58.39270783 -32.1382713 59.93782951 -33.67996216 61.48301697 C-36.86969283 64.67866081 -40.06140634 67.87230841 -43.25439453 71.06469727 C-47.35283791 75.16303758 -51.44427118 79.26830418 -55.534132 83.37520695 C-58.69616689 86.54830843 -61.86268344 89.7169073 -65.03052139 92.8842144 C-66.5432704 94.39814461 -68.05439546 95.91369927 -69.56386948 97.43089485 C-71.65492329 99.53167214 -73.75212655 101.62610806 -75.85107422 103.71899414 C-76.47329865 104.34683807 -77.09552307 104.97468201 -77.73660278 105.62155151 C-82.02166061 109.875 -82.02166061 109.875 -84.25 109.875 C-84.04503906 110.38546875 -83.84007812 110.8959375 -83.62890625 111.421875 C-79.56790666 122.38074471 -79.32338348 132.80392597 -83.25 143.875 C-88.37962214 153.82558507 -96.88243959 161.49045967 -107.25 165.75 C-117.34090157 168.68360711 -129.10183974 168.15354259 -138.53515625 163.546875 C-148.09508978 157.65960658 -153.952466 150.09816971 -158.5625 140 C-161.43218518 126.95597643 -160.31376147 115.33399083 -153.25 103.875 C-146.954159 94.65086086 -137.65300196 89.51461014 -126.84765625 87.40625 C-120.07014607 86.4640369 -112.5827061 86.85998898 -106.29296875 89.78515625 C-103.92097882 90.11579264 -103.92097882 90.11579264 -101.48046875 87.62890625 C-100.45317274 86.57762667 -99.4392866 85.51311585 -98.4375 84.4375 C-97.6940332 83.67276367 -97.6940332 83.67276367 -96.93554688 82.89257812 C-94.22611086 80.07853068 -91.64059045 77.17640527 -89.09887695 74.21069336 C-85.09397281 69.62596999 -80.8261747 65.3422391 -76.5 61.0625 C-75.27458496 59.84276489 -75.27458496 59.84276489 -74.02441406 58.59838867 C-70.56304958 55.1532266 -67.09571409 51.7140971 -63.62890625 48.27441406 C-61.08384812 45.74753492 -58.54186869 43.21758685 -56 40.6875 C-55.22688477 39.92268311 -54.45376953 39.15786621 -53.65722656 38.36987305 C-49.53361983 34.26473157 -45.59886474 30.06834695 -41.80252075 25.65905762 C-38.14097035 21.45143793 -34.12806834 17.56849378 -30.1875 13.625 C-29.31544922 12.74070312 -28.44339844 11.85640625 -27.54492188 10.9453125 C-19.51938194 2.90154651 -12.03920449 -4.16741694 0 0 Z M-133.125 119.25 C-134.89234318 123.37380075 -135.54839318 126.44271271 -134.625 130.875 C-132.61036158 135.27057474 -130.1340702 138.63689672 -126.0625 141.3125 C-121.65703139 142.19359372 -117.60599708 141.97296961 -113.25 140.875 C-108.862349 137.7009546 -106.72020403 134.0639554 -105.25 128.875 C-105.44248072 124.00440096 -106.55500638 120.73459738 -109.625 116.9375 C-113.89926266 113.57915077 -116.53242509 112.40121059 -122.15625 112.55859375 C-126.81627635 113.26281415 -130.19979566 115.54474117 -133.125 119.25 Z " fill="#0297F5" transform="translate(400.25,634.125)"/>
<path d="M0 0 C3.37090985 2.59840967 5.37340349 5.10199717 7 9 C7.58142451 16.24490179 4.31223683 21.95442836 0.75 28 C0.03263672 29.25683594 0.03263672 29.25683594 -0.69921875 30.5390625 C-1.65094971 32.20523649 -2.60852842 33.86808543 -3.57226562 35.52734375 C-5.76449318 39.32400598 -7.88335518 43.16082823 -10 47 C-8.989375 47.598125 -7.97875 48.19625 -6.9375 48.8125 C0.06746712 53.80994605 4.11635176 61.76908209 6 70 C7.10012562 81.71761705 5.69818136 91.33953599 -1.375 100.875 C-8.24127294 109.00153822 -15.23202483 113.33197453 -25.91796875 114.38671875 C-36.87525809 114.85572295 -45.55455535 112.63605326 -54.1875 105.69140625 C-61.04224357 99.29463047 -66.25813079 90.45883242 -67 81 C-67.09796875 80.16082031 -67.1959375 79.32164062 -67.296875 78.45703125 C-67.98978844 68.36981053 -64.14596291 60.34611007 -58.0703125 52.51171875 C-53.76199983 47.91791548 -48.7881592 44.49779484 -43 42 C-42.34 42 -41.68 42 -41 42 C-40.78730469 41.36320313 -40.57460938 40.72640625 -40.35546875 40.0703125 C-38.43707733 35.72490715 -35.87856626 31.86369997 -33.3125 27.875 C-32.22391427 26.17190316 -31.13537238 24.4687783 -30.046875 22.765625 C-29.25893555 21.53682617 -29.25893555 21.53682617 -28.45507812 20.28320312 C-27.22930582 18.35981007 -26.02123658 16.42810434 -24.828125 14.484375 C-21.93861294 9.80489972 -19.25255617 5.58109993 -15 2 C-14.278125 1.38125 -13.55625 0.7625 -12.8125 0.125 C-8.44917879 -1.62032848 -4.4965861 -1.22029064 0 0 Z M-40.75 68.625 C-42.67886555 72.28984454 -43.12162519 75.87905228 -43 80 C-41.53771063 84.15598033 -39.96369314 86.96459001 -36 89 C-30.43288904 90.39177774 -26.74124351 90.31524036 -21.70703125 87.42578125 C-18.61744725 84.84523626 -17.49285351 81.94282809 -17 78 C-17.26744323 73.78203828 -18.38395362 70.84193005 -20.875 67.4375 C-22.88754182 65.74137141 -22.88754182 65.74137141 -25.25 66.25 C-26.11625 66.62125 -26.11625 66.62125 -27 67 C-27 66.01 -27 65.02 -27 64 C-33.12049876 63.63997066 -36.27301398 64.46779869 -40.75 68.625 Z " fill="#0297F5" transform="translate(411,722)"/>
<path d="M0 0 C0.66 0.33 1.32 0.66 2 1 C1.01 2.32 0.02 3.64 -1 5 C-0.34 5.33 0.32 5.66 1 6 C-0.32 6.33 -1.64 6.66 -3 7 C-2.67 8.65 -2.34 10.3 -2 12 C-0.68 11.67 0.64 11.34 2 11 C-0.75 16.875 -0.75 16.875 -3 18 C-3 18.66 -3 19.32 -3 20 C-5.24401957 21.94875383 -7.33636533 23.66818267 -10 25 C-10 30.61 -10 36.22 -10 42 C-9.34 42 -8.68 42 -8 42 C-8.33 45.96 -8.66 49.92 -9 54 C-9.33 54 -9.66 54 -10 54 C-11.68902865 43.4196696 -13.23894157 32.80608657 -14.125 22.125 C-14.26699829 20.90635254 -14.26699829 20.90635254 -14.41186523 19.66308594 C-14.65022379 16.13875814 -14.66703276 13.93161825 -12.56713867 10.9987793 C-10.79268635 9.19969167 -8.96526899 7.58647323 -7 6 C-6.26910156 5.34128906 -5.53820312 4.68257812 -4.78515625 4.00390625 C-3.19010417 2.66927083 -1.59505208 1.33463542 0 0 Z " fill="#50C2FA" transform="translate(466,557)"/>
<path d="M0 0 C-2.64 1.65 -5.28 3.3 -8 5 C-7.34 5.99 -6.68 6.98 -6 8 C-6 11.17370278 -6.30933342 12.3794668 -8 15 C-10 16.3125 -10 16.3125 -12 17 C-14 16 -14 16 -17 14 C-18.98 15.65 -20.96 17.3 -23 19 C-23.66 18.67 -24.32 18.34 -25 18 C-25.625 15.4375 -25.625 15.4375 -26 13 C-33.69331474 15.34663664 -40.81909375 18.57453824 -48.06640625 22.03515625 C-48.91847656 22.43089844 -49.77054687 22.82664062 -50.6484375 23.234375 C-51.41333496 23.59756836 -52.17823242 23.96076172 -52.96630859 24.33496094 C-55 25 -55 25 -58 24 C-49.0781867 19.9540097 -40.15098227 15.92017999 -31.21777344 11.89941406 C-28.51416015 10.6825178 -25.81167373 9.4631842 -23.11035156 8.24121094 C-19.6402736 6.67219983 -16.16432706 5.1165031 -12.6875 3.5625 C-11.63377197 3.08449951 -10.58004395 2.60649902 -9.49438477 2.11401367 C-8.04890259 1.471698 -8.04890259 1.471698 -6.57421875 0.81640625 C-5.73463623 0.43943604 -4.89505371 0.06246582 -4.0300293 -0.32592773 C-2 -1 -2 -1 0 0 Z " fill="#53C3FB" transform="translate(419,421)"/>
<path d="M0 0 C1.61523226 3.23046452 0.00296739 6.29584051 -0.94921875 9.61328125 C-1.16310745 10.37867722 -1.37699615 11.14407318 -1.59736633 11.93266296 C-2.28736507 14.39455233 -2.98748992 16.85344086 -3.6875 19.3125 C-4.14059731 20.92755963 -4.59307817 22.54279233 -5.04492188 24.15820312 C-7.56882442 33.14662153 -10.19708925 42.09412147 -13 51 C-13.5534764 48.92446352 -14 47.15634036 -14 45 C-15.98 45.66 -17.96 46.32 -20 47 C-20.66 45.35 -21.32 43.7 -22 42 C-20.625 40.5 -20.625 40.5 -19 39 C-18.34 39 -17.68 39 -17 39 C-17 39.66 -17 40.32 -17 41 C-16.34 41 -15.68 41 -15 41 C-15 40.34 -15 39.68 -15 39 C-13.68 39.33 -12.36 39.66 -11 40 C-10.87753906 39.02933594 -10.75507812 38.05867188 -10.62890625 37.05859375 C-10.00053134 32.65996937 -8.98391786 28.37758706 -7.9375 24.0625 C-7.6580957 22.89364258 -7.6580957 22.89364258 -7.37304688 21.70117188 C-6.91818991 19.80010303 -6.4594938 17.89995343 -6 16 C-9.40297337 16.82115227 -12.68604223 17.87024167 -16 19 C-14.68 17.68 -13.36 16.36 -12 15 C-13.32 14.67 -14.64 14.34 -16 14 C-14.08539961 12.22688737 -12.16842507 10.45646638 -10.25 8.6875 C-9.44175781 7.93823242 -9.44175781 7.93823242 -8.6171875 7.17382812 C-5.84396048 4.62043007 -3.07809771 2.18903551 0 0 Z " fill="#56C4FB" transform="translate(801,270)"/>
<path d="M0 0 C0.66 0.33 1.32 0.66 2 1 C1.60167969 1.43570312 1.20335937 1.87140625 0.79296875 2.3203125 C-2.48936831 6.00994686 -4.99399746 9.43077198 -7 14 C-5.02 13.67 -3.04 13.34 -1 13 C-1.33 14.98 -1.66 16.96 -2 19 C-0.68 18.67 0.64 18.34 2 18 C0.68 19.32 -0.64 20.64 -2 22 C-3.051875 21.67 -4.10375 21.34 -5.1875 21 C-9.58812589 19.71155086 -9.58812589 19.71155086 -14 20 C-16.35322796 22.90412546 -16.35322796 22.90412546 -18 26 C-18.99 25.67 -19.98 25.34 -21 25 C-20.67 23.68 -20.34 22.36 -20 21 C-21.27310312 21.93441535 -22.543388 22.87267111 -23.8125 23.8125 C-24.52019531 24.33457031 -25.22789062 24.85664063 -25.95703125 25.39453125 C-27.78531393 26.83128877 -29.39896688 28.31815763 -31 30 C-31.66 29.67 -32.32 29.34 -33 29 C-26.4003743 22.83804581 -19.72877976 16.8795709 -12.69140625 11.21484375 C-8.32840573 7.62439194 -4.16251677 3.81940259 0 0 Z " fill="#47BBF8" transform="translate(686,368)"/>
<path d="M0 0 C0.33 0 0.66 0 1 0 C0.358707 6.20771622 -0.88347061 12.07697618 -2.43359375 18.1171875 C-2.67159195 19.0555545 -2.90959015 19.99392151 -3.15480042 20.96072388 C-3.65581402 22.92952698 -4.15934791 24.89769028 -4.6652832 26.86523438 C-5.43995107 29.88455319 -6.20180945 32.906919 -6.96289062 35.9296875 C-7.45235513 37.84655091 -7.94256314 39.76322467 -8.43359375 41.6796875 C-8.6607457 42.584841 -8.88789764 43.48999451 -9.12193298 44.4225769 C-9.3387825 45.25749664 -9.55563202 46.09241638 -9.77905273 46.95263672 C-9.96700912 47.68795624 -10.15496552 48.42327576 -10.34861755 49.18087769 C-11 51 -11 51 -13 53 C-13 50.36 -13 47.72 -13 45 C-13.99 44.67 -14.98 44.34 -16 44 C-13 42 -13 42 -10 42 C-10.33 40.68 -10.66 39.36 -11 38 C-11.66 38 -12.32 38 -13 38 C-13 34 -13 34 -11.625 32.25 C-10 31 -10 31 -8 31 C-8 30.34 -8 29.68 -8 29 C-9.98 28.67 -11.96 28.34 -14 28 C-14 25 -14 25 -12 23 C-12.33 22.01 -12.66 21.02 -13 20 C-11.87626904 19.18574575 -10.7509687 18.37365704 -9.625 17.5625 C-8.99851562 17.11003906 -8.37203125 16.65757812 -7.7265625 16.19140625 C-6 15 -6 15 -4 14 C-3.20180463 11.64328449 -2.50852775 9.33786625 -1.875 6.9375 C-1.69324219 6.27427734 -1.51148438 5.61105469 -1.32421875 4.92773438 C-0.87569596 3.28708521 -0.43692614 1.64377551 0 0 Z " fill="#53C3FA" transform="translate(759,423)"/>
<path d="M0 0 C-2.97 1.65 -5.94 3.3 -9 5 C-8.505 6.485 -8.505 6.485 -8 8 C-7.34 7.67 -6.68 7.34 -6 7 C-5 10 -5 10 -5.9375 12 C-6.4634375 12.99 -6.4634375 12.99 -7 14 C-7 14.99 -7 15.98 -7 17 C-8.65 17.66 -10.3 18.32 -12 19 C-14.62386487 15.93882432 -15 15.26826873 -15 11 C-14.38655243 9.31301918 -13.72904086 7.64034193 -13 6 C-15.48034449 7.31031436 -17.9593035 8.62313468 -20.4375 9.9375 C-21.14455078 10.31068359 -21.85160156 10.68386719 -22.58007812 11.06835938 C-26.00478658 12.72492335 -26.00478658 12.72492335 -29 15 C-28.34 15.66 -27.68 16.32 -27 17 C-28.6875 18.5625 -28.6875 18.5625 -31 20 C-35.41025641 19.58974359 -35.41025641 19.58974359 -37 18 C-38.093125 18.515625 -39.18625 19.03125 -40.3125 19.5625 C-44 21 -44 21 -47 20 C-42.8239348 17.97203383 -38.64705626 15.94575503 -34.46948242 13.92089844 C-33.05455544 13.234815 -31.63983469 12.54830607 -30.2253418 11.86132812 C-26.14411046 9.87938831 -22.05835106 7.90732626 -17.96685791 5.94665527 C-16.03555435 5.01711243 -14.1103003 4.07580756 -12.18505859 3.13378906 C-11.02441895 2.5765918 -9.8637793 2.01939453 -8.66796875 1.4453125 C-7.64340576 0.94789551 -6.61884277 0.45047852 -5.56323242 -0.06201172 C-3 -1 -3 -1 0 0 Z " fill="#4FC0FA" transform="translate(658,310)"/>
<path d="M0 0 C0.33 0 0.66 0 1 0 C0.28191275 7.20746829 -1.29126562 14.14066937 -2.9375 21.1875 C-3.33485352 22.93063477 -3.33485352 22.93063477 -3.74023438 24.70898438 C-3.99998047 25.82982422 -4.25972656 26.95066406 -4.52734375 28.10546875 C-4.76187256 29.11762451 -4.99640137 30.12978027 -5.23803711 31.17260742 C-5.9707503 33.89146401 -6.89751039 36.41171369 -8 39 C-8.5534764 36.92446352 -9 35.15634036 -9 33 C-9.66 32.67 -10.32 32.34 -11 32 C-10.43628586 28.73045798 -9.50037734 27.17424117 -7 25 C-9.97670763 25.74378388 -9.97670763 25.74378388 -11.5625 27.5625 C-12.036875 28.036875 -12.51125 28.51125 -13 29 C-13.66 29 -14.32 29 -15 29 C-14 26 -14 26 -11 24 C-11.99 22.68 -12.98 21.36 -14 20 C-12.68 19.67 -11.36 19.34 -10 19 C-10.99 18.34 -11.98 17.68 -13 17 C-8.25 14 -8.25 14 -6 14 C-6 12.68 -6 11.36 -6 10 C-5.34 10 -4.68 10 -4 10 C-2.99505737 7.99011473 -2.21879534 5.98110049 -1.4375 3.875 C-1.16808594 3.15054688 -0.89867187 2.42609375 -0.62109375 1.6796875 C-0.41613281 1.12539063 -0.21117187 0.57109375 0 0 Z M-17 29 C-15 30 -15 30 -15 30 Z M-13 33 C-11 34 -11 34 -11 34 Z " fill="#4DBFFA" transform="translate(720,579)"/>
<path d="M0 0 C0.33 0 0.66 0 1 0 C0.39087174 5.58086837 -0.57288858 10.90311785 -1.92578125 16.34765625 C-2.11464401 17.12201523 -2.30350677 17.89637421 -2.49809265 18.69419861 C-2.89693449 20.32586344 -3.29791198 21.95700758 -3.70092773 23.58764648 C-4.30462263 26.0306226 -4.90194336 28.4750836 -5.49804688 30.91992188 C-7.87834426 40.64682526 -10.37583237 50.33595469 -13 60 C-13.33 60 -13.66 60 -14 60 C-13.35343144 51.10968231 -11.12977433 42.62806252 -9 34 C-10.32 33.34 -11.64 32.68 -13 32 C-13 31.67 -13 31.34 -13 31 C-14.32 30.34 -15.64 29.68 -17 29 C-16.484375 28.7525 -15.96875 28.505 -15.4375 28.25 C-14.633125 27.8375 -13.82875 27.425 -13 27 C-11.865625 26.5565625 -10.73125 26.113125 -9.5625 25.65625 C-5.98311683 23.60341655 -5.1527675 21.48133655 -4.00390625 17.578125 C-3.49477617 15.47548388 -3.01509538 13.36553079 -2.5625 11.25 C-2.30791016 10.17105469 -2.05332031 9.09210937 -1.79101562 7.98046875 C-1.16829828 5.325108 -0.57253862 2.66654857 0 0 Z M-17 32 C-16.34 32.66 -15.68 33.32 -15 34 C-15.66 34 -16.32 34 -17 34 C-17 33.34 -17 32.68 -17 32 Z " fill="#5CC8FB" transform="translate(735,518)"/>
<path d="M0 0 C0.66 0.33 1.32 0.66 2 1 C1.30132812 1.32613281 0.60265625 1.65226562 -0.1171875 1.98828125 C-1.02726562 2.42527344 -1.93734375 2.86226563 -2.875 3.3125 C-3.77992188 3.74175781 -4.68484375 4.17101562 -5.6171875 4.61328125 C-8.26449476 5.9199388 -8.26449476 5.9199388 -10 9 C-10.70125 9.4125 -11.4025 9.825 -12.125 10.25 C-16.1587794 12.70534398 -19.50829587 15.83753845 -23 19 C-23.33 18.01 -23.66 17.02 -24 16 C-24.51949219 16.34933594 -25.03898437 16.69867188 -25.57421875 17.05859375 C-32.50087873 21.57820738 -32.50087873 21.57820738 -37 22 C-34.49316923 18.23975384 -32.13506066 17.60807914 -28 16 C-29.3303125 16.4640625 -29.3303125 16.4640625 -30.6875 16.9375 C-33.46709155 17.8290671 -36.13136375 18.49377007 -39 19 C-35.35842635 15.94226239 -31.31195544 14.13210313 -27.0234375 12.171875 C-26.25697906 11.81861145 -25.49052063 11.4653479 -24.70083618 11.10137939 C-23.08652901 10.35937008 -21.4710537 9.61989754 -19.85449219 8.8828125 C-17.37255906 7.7488848 -14.89717014 6.6014578 -12.421875 5.453125 C-10.85194197 4.73354651 -9.28164187 4.01476823 -7.7109375 3.296875 C-6.96822601 2.95114441 -6.22551453 2.60541382 -5.46029663 2.24920654 C-3.66645626 1.43865119 -1.83562018 0.71088805 0 0 Z " fill="#57C6FB" transform="translate(494,385)"/>
<path d="M0 0 C0.99 0.33 1.98 0.66 3 1 C0.78179771 2.88957973 -0.57949209 3.93692381 -3.5 4.375 C-6.95100433 5.23775108 -7.91734336 7.22018287 -10 10 C-9.3387915 10.32274902 -8.67758301 10.64549805 -7.99633789 10.97802734 C-5.01529456 12.43745548 -2.0388812 13.90608886 0.9375 15.375 C1.97841797 15.88289062 3.01933594 16.39078125 4.09179688 16.9140625 C5.08115234 17.40390625 6.07050781 17.89375 7.08984375 18.3984375 C8.00628662 18.84880371 8.92272949 19.29916992 9.86694336 19.76318359 C12 21 12 21 13 23 C6.99847333 21.27949488 1.60900768 18.43335832 -3.9375 15.625 C-4.90107422 15.14289062 -5.86464844 14.66078125 -6.85742188 14.1640625 C-11.99376771 11.58009084 -17.04121012 8.91044413 -22 6 C-20.68 5.34 -19.36 4.68 -18 4 C-17.67 4.66 -17.34 5.32 -17 6 C-13.62537285 5.45276317 -11.91765 4.9451 -9 3 C-8.34 3 -7.68 3 -7 3 C-6.360625 2.505 -5.72125 2.01 -5.0625 1.5 C-3 0 -3 0 0 0 Z " fill="#5AC7FC" transform="translate(594,621)"/>
<path d="M0 0 C0.66 0.33 1.32 0.66 2 1 C1.34 2.32 0.68 3.64 0 5 C-1.32 5 -2.64 5 -4 5 C-4 5.66 -4 6.32 -4 7 C-4.66 7 -5.32 7 -6 7 C-6 6.34 -6 5.68 -6 5 C-6.84304688 5.433125 -7.68609375 5.86625 -8.5546875 6.3125 C-9.65039062 6.869375 -10.74609375 7.42625 -11.875 8 C-12.96554687 8.556875 -14.05609375 9.11375 -15.1796875 9.6875 C-18 11 -18 11 -20 11 C-19.67 11.66 -19.34 12.32 -19 13 C-17.68 12.34 -16.36 11.68 -15 11 C-15.92652701 12.17539996 -16.86663387 13.34010577 -17.8125 14.5 C-18.33457031 15.1496875 -18.85664062 15.799375 -19.39453125 16.46875 C-21 18 -21 18 -24 18 C-23.34 16.35 -22.68 14.7 -22 13 C-23.13888672 13.55880859 -23.13888672 13.55880859 -24.30078125 14.12890625 C-25.29464844 14.60199219 -26.28851562 15.07507813 -27.3125 15.5625 C-28.29863281 16.03816406 -29.28476562 16.51382812 -30.30078125 17.00390625 C-33 18 -33 18 -36 17 C-31.99910548 15.05909328 -27.99720095 13.12028892 -23.99438477 11.18334961 C-22.63538747 10.52538522 -21.2766583 9.86686673 -19.91821289 9.20776367 C-17.95530869 8.25550644 -15.99141963 7.30530655 -14.02734375 6.35546875 C-12.25991821 5.49924927 -12.25991821 5.49924927 -10.45678711 4.62573242 C-9.31604736 4.08924072 -8.17530762 3.55274902 -7 3 C-6.36506622 2.69937653 -5.73013245 2.39875305 -5.07595825 2.08901978 C-3.41097203 1.33038477 -1.7072725 0.65797175 0 0 Z " fill="#5BC9FC" transform="translate(543,362)"/>
<path d="M0 0 C0.66 0.33 1.32 0.66 2 1 C1.505 1.61875 1.01 2.2375 0.5 2.875 C-1.19222773 4.83880904 -1.19222773 4.83880904 -1 7 C-0.01 6.01 0.98 5.02 2 4 C2.66 4.33 3.32 4.66 4 5 C4 5.99 4 6.98 4 8 C2.02 8.33 0.04 8.66 -2 9 C-2 10.32 -2 11.64 -2 13 C-3 15.25 -3 15.25 -4 17 C-5.65 16.67 -7.3 16.34 -9 16 C-10 13 -10 13 -10 12 C-10.66 11.67 -11.32 11.34 -12 11 C-8.04 7.37 -4.08 3.74 0 0 Z " fill="#52C3FB" transform="translate(531,501)"/>
<path d="M0 0 C0.99 0.33 1.98 0.66 3 1 C3.66 1 4.32 1 5 1 C5.33 2.65 5.66 4.3 6 6 C3.03 5.505 3.03 5.505 0 5 C2.80266372 7.19204321 5.64263419 8.99758914 8.765625 10.69921875 C9.65507813 11.18583984 10.54453125 11.67246094 11.4609375 12.17382812 C12.84152344 12.9230957 12.84152344 12.9230957 14.25 13.6875 C15.18585937 14.19861328 16.12171875 14.70972656 17.0859375 15.23632812 C19.3891212 16.49367841 21.69383566 17.74812759 24 19 C21 20 21 20 18.81445312 19.10717773 C17.97849609 18.63739502 17.14253906 18.1676123 16.28125 17.68359375 C15.34796875 17.16603516 14.4146875 16.64847656 13.453125 16.11523438 C12.47859375 15.56158203 11.5040625 15.00792969 10.5 14.4375 C9.55640625 13.91091797 8.6128125 13.38433594 7.640625 12.84179688 C5.73236306 11.77687201 3.82611054 10.70833849 1.921875 9.63623047 C-2.69646864 7.0499889 -7.34755296 4.52423621 -12 2 C-11.34 1.67 -10.68 1.34 -10 1 C-8.65812182 1.6492959 -7.32520503 2.31731862 -6 3 C-2.99740483 3.33218192 -2.99740483 3.33218192 -1.3125 1.5 C-0.6628125 0.7575 -0.6628125 0.7575 0 0 Z " fill="#5BC8FC" transform="translate(619,643)"/>
<path d="M0 0 C-1.07121094 0.56589844 -2.14242187 1.13179688 -3.24609375 1.71484375 C-4.6432798 2.45563367 -6.04041247 3.19652429 -7.4375 3.9375 C-8.14455078 4.31068359 -8.85160156 4.68386719 -9.58007812 5.06835938 C-13.00478658 6.72492335 -13.00478658 6.72492335 -16 9 C-15.34 9.66 -14.68 10.32 -14 11 C-15.6875 12.5625 -15.6875 12.5625 -18 14 C-22.41025641 13.58974359 -22.41025641 13.58974359 -24 12 C-25.093125 12.515625 -26.18625 13.03125 -27.3125 13.5625 C-31 15 -31 15 -34 14 C-29.64620601 11.83278992 -25.28629623 9.67862582 -20.92016602 7.53637695 C-19.43533207 6.80556913 -17.95224195 6.07120722 -16.47094727 5.33325195 C-14.34317722 4.27399716 -12.20949254 3.22762243 -10.07421875 2.18359375 C-9.41161545 1.85032578 -8.74901215 1.5170578 -8.06632996 1.1736908 C-3.34161512 -1.11387171 -3.34161512 -1.11387171 0 0 Z " fill="#5BC9FC" transform="translate(645,316)"/>
<path d="M0 0 C0.66 0.33 1.32 0.66 2 1 C1.34 1.66 0.68 2.32 0 3 C0.99 3.66 1.98 4.32 3 5 C1.28909007 8.42181986 -0.56088769 11.48032055 -4.25 12.8125 C-4.8275 12.874375 -5.405 12.93625 -6 13 C-5.67 11.35 -5.34 9.7 -5 8 C-6.27310312 8.93441535 -7.543388 9.87267111 -8.8125 10.8125 C-9.87404297 11.59560547 -9.87404297 11.59560547 -10.95703125 12.39453125 C-12.78531393 13.83128877 -14.39896688 15.31815763 -16 17 C-16.66 16.67 -17.32 16.34 -18 16 C-16.1265988 14.26907429 -14.25133718 12.54023837 -12.375 10.8125 C-11.85292969 10.32974609 -11.33085938 9.84699219 -10.79296875 9.34960938 C-7.28138707 6.11982129 -3.68700349 3.02821458 0 0 Z " fill="#58C6FB" transform="translate(671,381)"/>
<path d="M0 0 C2.51083114 1.25541557 2.87125446 2.50063488 4 5 C3.01 5.99 2.02 6.98 1 8 C6.28 10.64 11.56 13.28 17 16 C14 17 14 17 11.65576172 16.13549805 C10.75615723 15.68215088 9.85655273 15.22880371 8.9296875 14.76171875 C7.95128906 14.27123047 6.97289062 13.78074219 5.96484375 13.27539062 C4.94519531 12.75138672 3.92554688 12.22738281 2.875 11.6875 C1.84761719 11.17509766 0.82023437 10.66269531 -0.23828125 10.13476562 C-7.86430921 6.27138158 -7.86430921 6.27138158 -9 4 C-8.2575 4.0825 -7.515 4.165 -6.75 4.25 C-3.21842973 3.92894816 -2.23369636 2.64734383 0 0 Z " fill="#56C5FB" transform="translate(380,513)"/>
<path d="M0 0 C0.66 0.33 1.32 0.66 2 1 C1.19175781 1.73605469 0.38351562 2.47210937 -0.44921875 3.23046875 C-1.52870221 4.21608409 -2.60812612 5.20176465 -3.6875 6.1875 C-4.48317383 6.91163086 -4.48317383 6.91163086 -5.29492188 7.65039062 C-11.66456327 13.36295278 -11.66456327 13.36295278 -17 20 C-16.34 20.33 -15.68 20.66 -15 21 C-16.32 22.32 -17.64 23.64 -19 25 C-19.66 24.67 -20.32 24.34 -21 24 C-21 23.34 -21 22.68 -21 22 C-21.66 21.67 -22.32 21.34 -23 21 C-17.83649529 15.57018273 -12.3826697 10.73823479 -6.515625 6.078125 C-4.19683412 4.1626021 -2.08583833 2.1638136 0 0 Z " fill="#5CC9FC" transform="translate(491,535)"/>
<path d="M0 0 C0.66 0 1.32 0 2 0 C2 0.66 2 1.32 2 2 C-1.1635377 4.169283 -4.4124787 5.66749209 -8 7 C-8.1490712 9.0745356 -8.1490712 9.0745356 -7 11 C-7.33 11.66 -7.66 12.32 -8 13 C-7.01 12.67 -6.02 12.34 -5 12 C-5 12.66 -5 13.32 -5 14 C-8.60760132 14.93669174 -10.49004362 15.20704495 -13.9921875 13.78515625 C-14.94351562 13.21667969 -15.89484375 12.64820313 -16.875 12.0625 C-17.84179688 11.49660156 -18.80859375 10.93070312 -19.8046875 10.34765625 C-20.52914063 9.90292969 -21.25359375 9.45820313 -22 9 C-21.34 8.67 -20.68 8.34 -20 8 C-18.0546875 8.77734375 -18.0546875 8.77734375 -15.875 9.9375 C-15.15054687 10.31777344 -14.42609375 10.69804687 -13.6796875 11.08984375 C-13.12539063 11.39019531 -12.57109375 11.69054687 -12 12 C-11.71125 11.05125 -11.4225 10.1025 -11.125 9.125 C-10 6 -10 6 -8 4 C-5.67518826 2.98034573 -3.34205301 1.97940398 -1 1 C-0.67 0.67 -0.34 0.34 0 0 Z " fill="#55C4FB" transform="translate(319,472)"/>
<path d="M0 0 C0.33 0 0.66 0 1 0 C0.4138281 5.92909506 -0.80404381 11.31580266 -2.5625 17 C-2.79646484 17.77472656 -3.03042969 18.54945313 -3.27148438 19.34765625 C-3.84190038 21.2335214 -4.42012803 23.1170209 -5 25 C-5.9883378 21.58442084 -5.73118909 19.4731482 -5 16 C-5.33 15.34 -5.66 14.68 -6 14 C-6.99 13.67 -7.98 13.34 -9 13 C-8.34 12.34 -7.68 11.68 -7 11 C-6.67 10.01 -6.34 9.02 -6 8 C-5.34 8 -4.68 8 -4 8 C-4 7.34 -4 6.68 -4 6 C-3.34 6 -2.68 6 -2 6 C-1.34 4.02 -0.68 2.04 0 0 Z " fill="#58C6FB" transform="translate(782,337)"/>
<path d="M0 0 C-1.45287661 1.33927721 -2.91247259 2.67126847 -4.375 4 C-5.18710937 4.7425 -5.99921875 5.485 -6.8359375 6.25 C-9 8 -9 8 -11 8 C-11 7.34 -11 6.68 -11 6 C-15.89562693 7.87702327 -15.89562693 7.87702327 -20 11 C-20 10.34 -20 9.68 -20 9 C-20.66 8.67 -21.32 8.34 -22 8 C-19.41909233 6.68253667 -16.83549542 5.37090383 -14.25 4.0625 C-13.52039063 3.68931641 -12.79078125 3.31613281 -12.0390625 2.93164062 C-11.33007812 2.57392578 -10.62109375 2.21621094 -9.890625 1.84765625 C-8.91657715 1.3527771 -8.91657715 1.3527771 -7.92285156 0.84790039 C-2.81176629 -1.40588315 -2.81176629 -1.40588315 0 0 Z " fill="#5AC8FC" transform="translate(741,271)"/>
<path d="M0 0 C0.721875 0.268125 1.44375 0.53625 2.1875 0.8125 C1.1975 2.2975 1.1975 2.2975 0.1875 3.8125 C0.8475 4.1425 1.5075 4.4725 2.1875 4.8125 C-0.4375 9.6875 -0.4375 9.6875 -3.8125 10.8125 C-3.8125 10.1525 -3.8125 9.4925 -3.8125 8.8125 C-5.7379644 7.6634288 -5.7379644 7.6634288 -7.8125 7.8125 C-7.8125 4.8125 -7.8125 4.8125 -5.625 2.0625 C-2.8125 -0.1875 -2.8125 -0.1875 0 0 Z " fill="#46B9F7" transform="translate(747.8125,319.1875)"/>
<path d="M0 0 C0.66 0.33 1.32 0.66 2 1 C1.37351562 1.31453125 0.74703125 1.6290625 0.1015625 1.953125 C-0.71570313 2.38109375 -1.53296875 2.8090625 -2.375 3.25 C-3.18710937 3.66765625 -3.99921875 4.0853125 -4.8359375 4.515625 C-7.20801205 6.14267975 -7.97094804 7.35386639 -9 10 C-9.94875 9.896875 -10.8975 9.79375 -11.875 9.6875 C-16.48988677 9.63099118 -19.84721219 11.75872872 -23.765625 14.00390625 C-26 15 -26 15 -29 14 C-24.91147781 11.97774877 -20.81807107 9.96589353 -16.71972656 7.96362305 C-15.32541973 7.28060771 -13.93250582 6.59474134 -12.54101562 5.90600586 C-10.54393613 4.91813427 -8.54211822 3.94052878 -6.5390625 2.96484375 C-5.91504547 2.65344955 -5.29102844 2.34205536 -4.64810181 2.02122498 C-3.12675713 1.28639361 -1.5656755 0.63492283 0 0 Z " fill="#60CBFD" transform="translate(687,294)"/>
<path d="M0 0 C-1.28913487 0.67154933 -2.58140204 1.33708859 -3.875 2 C-4.59429687 2.37125 -5.31359375 2.7425 -6.0546875 3.125 C-8 4 -8 4 -10 4 C-10.33 5.32 -10.66 6.64 -11 8 C-10.34 8.33 -9.68 8.66 -9 9 C-10.65 9.33 -12.3 9.66 -14 10 C-14.33 9.34 -14.66 8.68 -15 8 C-17.97 8.66 -20.94 9.32 -24 10 C-20.20833177 6.80488757 -15.88646421 4.8524641 -11.4375 2.75 C-10.66986328 2.37359375 -9.90222656 1.9971875 -9.11132812 1.609375 C-8.00241211 1.0834375 -8.00241211 1.0834375 -6.87109375 0.546875 C-6.20005615 0.22557617 -5.52901855 -0.09572266 -4.83764648 -0.42675781 C-3 -1 -3 -1 0 0 Z " fill="#5CC9FC" transform="translate(455,405)"/>
<path d="M0 0 C0.33 0 0.66 0 1 0 C0.39348541 5.57118044 -0.55853229 10.88377582 -1.9375 16.3125 C-2.10701172 17.01439453 -2.27652344 17.71628906 -2.45117188 18.43945312 C-3.28374176 21.76023567 -4.08179869 24.12269803 -6 27 C-6 25.02 -6 23.04 -6 21 C-6.66 20.67 -7.32 20.34 -8 20 C-7.6875 18.125 -7.6875 18.125 -7 16 C-6.01 15.34 -5.02 14.68 -4 14 C-2.75412605 10.67248981 -2.75412605 10.67248981 -1.8125 6.875 C-1.63525391 6.21628906 -1.45800781 5.55757812 -1.27539062 4.87890625 C-0.84007606 3.25530057 -0.41868259 1.62797391 0 0 Z M-10 21 C-8 22 -8 22 -8 22 Z " fill="#5ECAFC" transform="translate(717,591)"/>
<path d="M0 0 C0.66 0.33 1.32 0.66 2 1 C1.60167969 1.43570312 1.20335937 1.87140625 0.79296875 2.3203125 C-2.48936831 6.00994686 -4.99399746 9.43077198 -7 14 C-8.32 14 -9.64 14 -11 14 C-11.66 13.34 -12.32 12.68 -13 12 C-8.71 8.04 -4.42 4.08 0 0 Z " fill="#58C6FB" transform="translate(686,368)"/>
<path d="M0 0 C0.66 0.33 1.32 0.66 2 1 C1.67 1.66 1.34 2.32 1 3 C2.65 3 4.3 3 6 3 C2.92118304 6.87051275 -0.00073014 10.02911382 -4 13 C-4.66 12.67 -5.32 12.34 -6 12 C-5.34 10.68 -4.68 9.36 -4 8 C-3.01 8 -2.02 8 -1 8 C-1 7.34 -1 6.68 -1 6 C-1.66 5.67 -2.32 5.34 -3 5 C-3.33 4.01 -3.66 3.02 -4 2 C-2.125 0.9375 -2.125 0.9375 0 0 Z " fill="#57C5FA" transform="translate(549,429)"/>
<path d="M0 0 C0.66 0.33 1.32 0.66 2 1 C1.525625 1.78375 1.05125 2.5675 0.5625 3.375 C-0.33898023 4.88948678 -1.21179485 6.4235897 -2 8 C-2.825 8.20625 -3.65 8.4125 -4.5 8.625 C-9.61323773 10.63377197 -13.06641034 14.24123655 -17 18 C-17.66 17.67 -18.32 17.34 -19 17 C-16.96004487 15.10229694 -14.91810165 13.20681055 -12.875 11.3125 C-12.02035156 10.51682617 -12.02035156 10.51682617 -11.1484375 9.70507812 C-7.52351755 6.34790794 -3.82221468 3.13096309 0 0 Z " fill="#67D0FD" transform="translate(552,483)"/>
<path d="M0 0 C0.66 0.33 1.32 0.66 2 1 C0.5378836 4.56096091 -1.3378413 6.36170239 -4.375 8.6875 C-5.14585937 9.28949219 -5.91671875 9.89148438 -6.7109375 10.51171875 C-8.88247501 11.9235887 -10.47080352 12.56691841 -13 13 C-9.0580583 8.11950075 -4.88049925 3.9419417 0 0 Z " fill="#0E99F2" transform="translate(384,635)"/>
<path d="M0 0 C0.99 0.66 1.98 1.32 3 2 C3 7.30479934 1.4637943 8.18982627 -2 12 C-2 9 -2 9 -1 7 C-2.32 6.67 -3.64 6.34 -5 6 C-4.34 5.34 -3.68 4.68 -3 4 C-3.99 3.67 -4.98 3.34 -6 3 C-4.02 2.01 -2.04 1.02 0 0 Z " fill="#54C4FA" transform="translate(521,619)"/>
<path d="M0 0 C0.99 0.33 1.98 0.66 3 1 C3.2144997 9.27015524 3.07422976 16.96235969 1 25 C0.67 25 0.34 25 0 25 C0 16.75 0 8.5 0 0 Z " fill="#149DF0" transform="translate(251,668)"/>
<path d="M0 0 C0.66 0.33 1.32 0.66 2 1 C0.7934375 2.0828125 0.7934375 2.0828125 -0.4375 3.1875 C-3.18129514 5.70627786 -3.18129514 5.70627786 -3.5 8.625 C-4 11 -4 11 -6.5625 12.8125 C-7.366875 13.204375 -8.17125 13.59625 -9 14 C-9 13.01 -9 12.02 -9 11 C-9.99 11 -10.98 11 -12 11 C-8.04 7.37 -4.08 3.74 0 0 Z " fill="#5BC8FB" transform="translate(764,301)"/>
<path d="M0 0 C5.62561705 1.65816799 10.37537359 4.27925362 15.43359375 7.16601562 C19.30204838 9.30592765 22.52207932 10.55082586 27 11 C27 11.99 27 12.98 27 14 C20.55605986 12.53265561 15.28456891 9.62121332 9.5625 6.375 C8.64017578 5.859375 7.71785156 5.34375 6.76757812 4.8125 C4.50801235 3.54807977 2.25238729 2.27714982 0 1 C0 0.67 0 0.34 0 0 Z " fill="#62CCFD" transform="translate(645,664)"/>
<path d="M0 0 C0.33 0.99 0.66 1.98 1 3 C0.01 3.33 -0.98 3.66 -2 4 C-2.33 4.99 -2.66 5.98 -3 7 C-5.21484375 8.421875 -5.21484375 8.421875 -7.9375 9.75 C-8.83339844 10.19859375 -9.72929687 10.6471875 -10.65234375 11.109375 C-11.42707031 11.40328125 -12.20179688 11.6971875 -13 12 C-13.66 11.67 -14.32 11.34 -15 11 C-13.61341021 9.84299806 -12.21527559 8.69982377 -10.8125 7.5625 C-9.64654297 6.60537109 -9.64654297 6.60537109 -8.45703125 5.62890625 C-5.89174929 3.92823443 -4.02671729 3.38169969 -1 3 C-0.67 2.01 -0.34 1.02 0 0 Z " fill="#0E97EE" transform="translate(371,761)"/>
<path d="M0 0 C0.33 0 0.66 0 1 0 C2.10228696 4.40914783 2.07654536 8.48382401 2 13 C2.66 13 3.32 13 4 13 C3.67 16.96 3.34 20.92 3 25 C2.67 25 2.34 25 2 25 C0.7472283 16.61090382 -0.36011137 8.50262969 0 0 Z " fill="#65CFFD" transform="translate(454,586)"/>
<path d="M0 0 C0.66 0.33 1.32 0.66 2 1 C2 1.99 2 2.98 2 4 C-0.92702209 6.76440976 -3.14098048 8.09956211 -7 9 C-8.73026102 10.47890069 -8.73026102 10.47890069 -10 12 C-10.66 11.67 -11.32 11.34 -12 11 C-8.04 7.37 -4.08 3.74 0 0 Z " fill="#5CC9FB" transform="translate(721,338)"/>
<path d="M0 0 C0 4.31618166 -2.13270348 5.92789659 -5 9 C-5.66 9 -6.32 9 -7 9 C-7.4021875 10.1446875 -7.4021875 10.1446875 -7.8125 11.3125 C-8.94424112 13.87380884 -9.91223401 15.19692938 -12 17 C-12.99 16.67 -13.98 16.34 -15 16 C-11.1366276 11.51314387 -7.24875802 7.13073696 -3 3 C-2.401875 2.401875 -1.80375 1.80375 -1.1875 1.1875 C-0.795625 0.795625 -0.40375 0.40375 0 0 Z " fill="#0D98F0" transform="translate(317,702)"/>
<path d="M0 0 C0.66 0.33 1.32 0.66 2 1 C2.72886734 3.7696959 3 6.12862585 3 9 C1.68 9.33 0.36 9.66 -1 10 C-1.70074844 6.846632 -2 4.27275026 -2 1 C-1.34 0.67 -0.68 0.34 0 0 Z " fill="#45B9F8" transform="translate(567,352)"/>
<path d="M0 0 C0.98484375 0.02707031 1.9696875 0.05414062 2.984375 0.08203125 C3.73203125 0.11683594 4.4796875 0.15164063 5.25 0.1875 C5.58 1.5075 5.91 2.8275 6.25 4.1875 C5.59 4.1875 4.93 4.1875 4.25 4.1875 C4.25 3.1975 4.25 2.2075 4.25 1.1875 C-2.37773407 2.0497489 -6.52210744 2.83216943 -10.75 8.1875 C-10.43230764 5.24884567 -10.20747951 3.63650766 -8.0625 1.53125 C-5.17179849 -0.14848196 -3.31802027 -0.11850072 0 0 Z " fill="#159CEF" transform="translate(379.75,784.8125)"/>
<path d="M0 0 C0.66 0.33 1.32 0.66 2 1 C0.54712339 2.33927721 -0.91247259 3.67126847 -2.375 5 C-3.18710937 5.7425 -3.99921875 6.485 -4.8359375 7.25 C-7 9 -7 9 -9 9 C-8.75 6.625 -8.75 6.625 -8 4 C-6.1875 2.8125 -6.1875 2.8125 -4 2 C-3.29875 1.608125 -2.5975 1.21625 -1.875 0.8125 C-1.25625 0.544375 -0.6375 0.27625 0 0 Z " fill="#58C6FB" transform="translate(662,337)"/>
<path d="M0 0 C0.66 0.33 1.32 0.66 2 1 C-1.82573388 4.92496041 -5.61997324 8.68179791 -10 12 C-10.66 11.67 -11.32 11.34 -12 11 C-11.319375 10.38125 -11.319375 10.38125 -10.625 9.75 C-8.89725289 8.08048988 -8.89725289 8.08048988 -8.0625 5.875 C-7 4 -7 4 -5.0625 3.4375 C-4.381875 3.293125 -3.70125 3.14875 -3 3 C-1.26973898 1.52109931 -1.26973898 1.52109931 0 0 Z " fill="#5DCAFC" transform="translate(568,419)"/>
<path d="M0 0 C1.56640625 1.71875 1.56640625 1.71875 3 4 C2.55368811 8.44745886 0.68398777 12.19875718 -2.1875 15.5625 C-2.785625 16.036875 -3.38375 16.51125 -4 17 C-4.66 16.67 -5.32 16.34 -6 16 C-5.04867188 15.20335937 -5.04867188 15.20335937 -4.078125 14.390625 C-1.53954807 11.47030718 -1.24589772 9.55188248 -0.75 5.75 C-0.60046875 4.67234375 -0.4509375 3.5946875 -0.296875 2.484375 C-0.19890625 1.66453125 -0.1009375 0.8446875 0 0 Z " fill="#0F9AF2" transform="translate(323,604)"/>
<path d="M0 0 C0.66 0.33 1.32 0.66 2 1 C0.92492371 2.29854721 -0.16043736 3.58858361 -1.25 4.875 C-1.85328125 5.59429688 -2.4565625 6.31359375 -3.078125 7.0546875 C-5.00389008 9.00393752 -6.45313464 10.03219116 -9 11 C-9.99 11 -10.98 11 -12 11 C-8.04 7.37 -4.08 3.74 0 0 Z " fill="#5ECAFC" transform="translate(517,513)"/>
<path d="M0 0 C0 0.33 0 0.66 0 1 C-0.845625 1.165 -1.69125 1.33 -2.5625 1.5 C-7.33042248 3.58054799 -9.83351918 6.97163683 -13 11 C-13 7.66843858 -12.54335239 5.93971885 -11 3 C-7.3401383 0.05177808 -4.63109503 -0.32309965 0 0 Z " fill="#60CBFC" transform="translate(541,609)"/>
<path d="M0 0 C0.66 0.33 1.32 0.66 2 1 C-3.94 6.445 -3.94 6.445 -10 12 C-10.66 11.67 -11.32 11.34 -12 11 C-11.0479279 9.99403703 -10.08812654 8.99538437 -9.125 8 C-8.32449219 7.1646875 -8.32449219 7.1646875 -7.5078125 6.3125 C-6 5 -6 5 -4 5 C-4.33 4.01 -4.66 3.02 -5 2 C-2.625 0.9375 -2.625 0.9375 0 0 Z " fill="#61CBFC" transform="translate(469,504)"/>
<path d="M0 0 C0.66 0.33 1.32 0.66 2 1 C1.34 2.65 0.68 4.3 0 6 C-0.33 5.34 -0.66 4.68 -1 4 C-1.845625 4.61875 -2.69125 5.2375 -3.5625 5.875 C-6.91372345 8.13047736 -10.08856854 9.06125645 -14 10 C-11.81011454 6.71517181 -10.37861537 6.22762487 -6.8203125 4.828125 C-4.1954218 3.63396872 -2.15367211 1.89262095 0 0 Z " fill="#42B7F7" transform="translate(322,468)"/>
<path d="M0 0 C0.66 0 1.32 0 2 0 C1.44449305 3.59905908 0.25112752 4.99909799 -2.5625 7.25 C-3.20316406 7.77078125 -3.84382812 8.2915625 -4.50390625 8.828125 C-4.99761719 9.21484375 -5.49132812 9.6015625 -6 10 C-5.12808515 5.4934738 -3.09672921 3.32331916 0 0 Z " fill="#0D95EE" transform="translate(190,648)"/>
<path d="M0 0 C1.25127906 3.54667178 0.72285053 5.72253438 -0.4375 9.25 C-0.72496094 10.14203125 -1.01242187 11.0340625 -1.30859375 11.953125 C-1.53675781 12.62859375 -1.76492188 13.3040625 -2 14 C-2.82638376 11.10765685 -3 9.11257569 -3 6 C-3.99 5.67 -4.98 5.34 -6 5 C-3 3 -3 3 0 3 C0 2.01 0 1.02 0 0 Z " fill="#5FCBFC" transform="translate(749,462)"/>
<path d="M0 0 C0.66 0.33 1.32 0.66 2 1 C0.75323147 2.27400377 -0.4975648 3.54406654 -1.75 4.8125 C-2.44609375 5.52019531 -3.1421875 6.22789062 -3.859375 6.95703125 C-5.81428645 8.82275879 -7.80338553 10.43169642 -10 12 C-10.66 11.67 -11.32 11.34 -12 11 C-8.04 7.37 -4.08 3.74 0 0 Z " fill="#0289F1" transform="translate(720,288)"/>
<path d="M0 0 C0 3.58912412 -0.66436554 4.10857029 -3 6.6875 C-3.556875 7.31011719 -4.11375 7.93273437 -4.6875 8.57421875 C-5.120625 9.04472656 -5.55375 9.51523437 -6 10 C-6.33 9.34 -6.66 8.68 -7 8 C-7.66 7.67 -8.32 7.34 -9 7 C-7.68 6.01 -6.36 5.02 -5 4 C-4.34 4.33 -3.68 4.66 -3 5 C-2.690625 4.360625 -2.38125 3.72125 -2.0625 3.0625 C-1 1 -1 1 0 0 Z " fill="#5BC8FC" transform="translate(516,632)"/>
<path d="M0 0 C0.66 0.33 1.32 0.66 2 1 C1.34 1.66 0.68 2.32 0 3 C-0.66 2.34 -1.32 1.68 -2 1 C-1.34 0.67 -0.68 0.34 0 0 Z M-1 3 C-4.42346555 6.14958831 -7.44262737 6.56179109 -12 7 C-8.64918101 3.31409911 -5.96535219 1.22665993 -1 3 Z " fill="#43B9F8" transform="translate(561,355)"/>
<path d="M0 0 C0.66 0.33 1.32 0.66 2 1 C0.71451591 2.33929505 -0.57858155 3.67128643 -1.875 5 C-2.59429687 5.7425 -3.31359375 6.485 -4.0546875 7.25 C-6 9 -6 9 -8 9 C-7.8125 7.1875 -7.8125 7.1875 -7 5 C-4.5625 3.375 -4.5625 3.375 -2 2 C-1.34 1.34 -0.68 0.68 0 0 Z " fill="#5CC9FC" transform="translate(454,517)"/>
<path d="M0 0 C0.66 0.33 1.32 0.66 2 1 C-1.96 4.465 -1.96 4.465 -6 8 C-6.66 7.67 -7.32 7.34 -8 7 C-7.34 5.35 -6.68 3.7 -6 2 C-5.01 2.33 -4.02 2.66 -3 3 C-2.01 2.01 -1.02 1.02 0 0 Z " fill="#5BC9FC" transform="translate(483,492)"/>
<path d="M0 0 C2.475 0.99 2.475 0.99 5 2 C3.35 3.98 1.7 5.96 0 8 C-0.66 7.67 -1.32 7.34 -2 7 C-1.34 4.69 -0.68 2.38 0 0 Z " fill="#5AC7FA" transform="translate(627,363)"/>
<path d="M0 0 C0.33 0.66 0.66 1.32 1 2 C-0.2739589 4.03833424 -1.61061923 6.03852126 -3 8 C-3.66 8 -4.32 8 -5 8 C-5 8.99 -5 9.98 -5 11 C-5.66 11 -6.32 11 -7 11 C-5.5140084 6.40693504 -3.14985318 3.56430755 0 0 Z " fill="#1098EE" transform="translate(253,731)"/>
<path d="M0 0 C1.32 0.66 2.64 1.32 4 2 C4 2.99 4 3.98 4 5 C2.1875 5.625 2.1875 5.625 0 6 C-0.99 5.34 -1.98 4.68 -3 4 C-2.01 2.68 -1.02 1.36 0 0 Z " fill="#4EC0FB" transform="translate(407,496)"/>
<path d="M0 0 C0.66 0.33 1.32 0.66 2 1 C1.2884375 2.175625 1.2884375 2.175625 0.5625 3.375 C-0.33898023 4.88948678 -1.21179485 6.4235897 -2 8 C-4.0625 8.625 -4.0625 8.625 -6 9 C-4.68775452 5.06326356 -3.08089673 2.77280706 0 0 Z " fill="#57C6FB" transform="translate(552,483)"/>
<path d="M0 0 C0.66 0.33 1.32 0.66 2 1 C0.37750059 1.83819158 -1.24808497 2.6704116 -2.875 3.5 C-4.23238281 4.19609375 -4.23238281 4.19609375 -5.6171875 4.90625 C-8 6 -8 6 -10 6 C-9.67 5.01 -9.34 4.02 -9 3 C-7.88625 2.814375 -7.88625 2.814375 -6.75 2.625 C-4.01820689 2.12410486 -4.01820689 2.12410486 -1.8125 0.875 C-1.214375 0.58625 -0.61625 0.2975 0 0 Z " fill="#51C1FB" transform="translate(684,512)"/>
<path d="M0 0 C0.66 0.33 1.32 0.66 2 1 C-1.96 4.465 -1.96 4.465 -6 8 C-6.66 7.01 -7.32 6.02 -8 5 C-7.236875 4.731875 -6.47375 4.46375 -5.6875 4.1875 C-3.12619116 3.05575888 -1.80307062 2.08776599 0 0 Z " fill="#60CBFC" transform="translate(648,349)"/>
<path d="M0 0 C1.32 0.66 2.64 1.32 4 2 C2.35 3.65 0.7 5.3 -1 7 C-1.66 6.67 -2.32 6.34 -3 6 C-2.34 5.34 -1.68 4.68 -1 4 C-1 3.01 -1 2.02 -1 1 C-0.67 0.67 -0.34 0.34 0 0 Z " fill="#5CC9FC" transform="translate(719,284)"/>
<path d="M0 0 C1.47103502 2.94207004 1 5.7395144 1 9 C1.42854995 11.31036915 1.42854995 11.31036915 2 13 C1.01 12.67 0.02 12.34 -1 12 C-1.02687279 10.18757948 -1.04633715 8.37504767 -1.0625 6.5625 C-1.07410156 5.55316406 -1.08570313 4.54382813 -1.09765625 3.50390625 C-1 1 -1 1 0 0 Z " fill="#159CF0" transform="translate(298,604)"/>
<path d="M0 0 C1.485 0.99 1.485 0.99 3 2 C3.99 2 4.98 2 6 2 C4.35 3.32 2.7 4.64 1 6 C-0.0625 4.125 -0.0625 4.125 -1 2 C-0.67 1.34 -0.34 0.68 0 0 Z " fill="#58C6FB" transform="translate(485,486)"/>
<path d="M0 0 C0.66 0 1.32 0 2 0 C1.67 3.96 1.34 7.92 1 12 C0.67 12 0.34 12 0 12 C-0.19573608 10.56359829 -0.38127816 9.12580496 -0.5625 7.6875 C-0.66691406 6.88699219 -0.77132813 6.08648438 -0.87890625 5.26171875 C-1 3 -1 3 0 0 Z " fill="#58C7FC" transform="translate(456,599)"/>
<path d="M0 0 C-3.96 1.98 -3.96 1.98 -8 4 C-8.66 3.34 -9.32 2.68 -10 2 C-6.70021068 -0.19985954 -3.76967739 -1.88483869 0 0 Z " fill="#43B7F7" transform="translate(576,533)"/>
<path d="M0 0 C0.66 0.33 1.32 0.66 2 1 C0.515 2.485 0.515 2.485 -1 4 C-0.67 4.66 -0.34 5.32 0 6 C-1.65 6.33 -3.3 6.66 -5 7 C-5 6.01 -5 5.02 -5 4 C-2.5 1.8125 -2.5 1.8125 0 0 Z " fill="#4FC0FA" transform="translate(646,522)"/>
<path d="M0 0 C0.66 0.33 1.32 0.66 2 1 C2.99 1 3.98 1 5 1 C5 1.66 5 2.32 5 3 C3.02 3.66 1.04 4.32 -1 5 C-1.66 4.34 -2.32 3.68 -3 3 C-2.01 2.01 -1.02 1.02 0 0 Z " fill="#41B5F6" transform="translate(419,465)"/>
<path d="M0 0 C0.66 0.33 1.32 0.66 2 1 C-0.9465385 2.80066242 -3.88801935 4.50163895 -7 6 C-7.66 5.34 -8.32 4.68 -9 4 C-7.54618103 3.30300448 -6.08677047 2.61766134 -4.625 1.9375 C-3.40683594 1.36322266 -3.40683594 1.36322266 -2.1640625 0.77734375 C-1.44992187 0.52082031 -0.73578125 0.26429688 0 0 Z " fill="#139AEB" transform="translate(825,190)"/>
<path d="M0 0 C0.66 0.33 1.32 0.66 2 1 C2 1.66 2 2.32 2 3 C3.32 3.33 4.64 3.66 6 4 C4.35 4.66 2.7 5.32 1 6 C0.34 5.34 -0.32 4.68 -1 4 C-0.625 1.875 -0.625 1.875 0 0 Z " fill="#43B7F6" transform="translate(508,446)"/>
<path d="M0 0 C-2.97 2.475 -2.97 2.475 -6 5 C-6.66 4.67 -7.32 4.34 -8 4 C-7.25 2.0625 -7.25 2.0625 -6 0 C-3.40292416 -1.05506206 -2.5386068 -1.2693034 0 0 Z " fill="#6AD3FD" transform="translate(741,271)"/>
<path d="M0 0 C3.63 0 7.26 0 11 0 C11 0.33 11 0.66 11 1 C7.37 1 3.74 1 0 1 C0 0.67 0 0.34 0 0 Z " fill="#1996E5" transform="translate(207,719)"/>
<path d="M0 0 C0.33 0.99 0.66 1.98 1 3 C0.34 3 -0.32 3 -1 3 C-0.67 2.01 -0.34 1.02 0 0 Z " fill="#1C90D6" transform="translate(257,796)"/>
<path d="M0 0 C1.32 0 2.64 0 4 0 C3.67 0.66 3.34 1.32 3 2 C2.01 1.34 1.02 0.68 0 0 Z " fill="#1B96E3" transform="translate(200,717)"/>
<path d="M0 0 C4 1 4 1 4 1 Z " fill="#169FF2" transform="translate(276,748)"/>
<path d="M0 0 C1 4 1 4 1 4 Z " fill="#169EF1" transform="translate(428,698)"/>
<path d="M0 0 C1 4 1 4 1 4 Z " fill="#169DF2" transform="translate(418,626)"/>
<path d="M0 0 C3 1 3 1 3 1 Z " fill="#1C8BD1" transform="translate(384,837)"/>
<path d="M0 0 C3 1 3 1 3 1 Z " fill="#1B8DD1" transform="translate(376,837)"/>
<path d="M0 0 C0.99 0.495 0.99 0.495 2 1 C1.01 1.495 1.01 1.495 0 2 C0 1.34 0 0.68 0 0 Z " fill="#1D90DA" transform="translate(259,797)"/>
<path d="M0 0 C0.33 0.66 0.66 1.32 1 2 C0.34 1.67 -0.32 1.34 -1 1 C-0.67 0.67 -0.34 0.34 0 0 Z " fill="#16A0F1" transform="translate(270,720)"/>
<path d="M0 0 C3 1 3 1 3 1 Z " fill="#1A9AE8" transform="translate(220,719)"/>
<path d="" fill="#1E91D8" transform="translate(0,0)"/>
<path d="M0 0 C0.33 0.66 0.66 1.32 1 2 C0.34 1.67 -0.32 1.34 -1 1 C-0.67 0.67 -0.34 0.34 0 0 Z " fill="#1CA0F1" transform="translate(273,616)"/>
<path d="" fill="#1C96E2" transform="translate(0,0)"/>
<path d="M0 0 C3 1 3 1 3 1 Z " fill="#1995E1" transform="translate(520,328)"/>
<path d="" fill="#1994E4" transform="translate(0,0)"/>
<path d="M0 0 C0.66 0.66 1.32 1.32 2 2 C1.34 2 0.68 2 0 2 C0 1.34 0 0.68 0 0 Z " fill="#1593E2" transform="translate(692,248)"/>
<path d="M0 0 C2 1 2 1 2 1 Z " fill="#1A92DF" transform="translate(690,733)"/>
<path d="M0 0 C2 1 2 1 2 1 Z " fill="#16A0F0" transform="translate(408,720)"/>
<path d="M0 0 C2 1 2 1 2 1 Z " fill="#1AA2F0" transform="translate(273,720)"/>
<path d="M0 0 C2 1 2 1 2 1 Z " fill="#1993E4" transform="translate(664,719)"/>
<path d="M0 0 C2 1 2 1 2 1 Z " fill="#1895E3" transform="translate(656,715)"/>
<path d="" fill="#1993E1" transform="translate(0,0)"/>
<path d="" fill="#1E8FD8" transform="translate(0,0)"/>
<path d="" fill="#189EEF" transform="translate(0,0)"/>
<path d="M0 0 C2 1 2 1 2 1 Z " fill="#1B96E7" transform="translate(576,671)"/>
<path d="M0 0 C2 1 2 1 2 1 Z " fill="#1B9DEF" transform="translate(317,647)"/>
<path d="M0 0 C2 1 2 1 2 1 Z " fill="#19A0F3" transform="translate(296,645)"/>
<path d="" fill="#1B9FF1" transform="translate(0,0)"/>
<path d="M0 0 C2 1 2 1 2 1 Z " fill="#15A0F6" transform="translate(308,598)"/>
<path d="M0 0 C2 1 2 1 2 1 Z " fill="#189EF1" transform="translate(401,579)"/>
<path d="" fill="#199CEE" transform="translate(0,0)"/>
<path d="" fill="#1A97E6" transform="translate(0,0)"/>
<path d="" fill="#1C98E4" transform="translate(0,0)"/>
<path d="M0 0 C2 1 2 1 2 1 Z " fill="#1A9AEA" transform="translate(264,509)"/>
<path d="M0 0 C2 1 2 1 2 1 Z " fill="#1B91D9" transform="translate(233,491)"/>
<path d="" fill="#1B98E5" transform="translate(0,0)"/>
<path d="M0 0 C2 1 2 1 2 1 Z " fill="#1A94E1" transform="translate(790,475)"/>
<path d="" fill="#1A92E1" transform="translate(0,0)"/>
<path d="" fill="#1893E3" transform="translate(0,0)"/>
<path d="" fill="#1795E3" transform="translate(0,0)"/>
<path d="M0 0 C2 1 2 1 2 1 Z " fill="#1996E4" transform="translate(417,376)"/>
<path d="M0 0 C2 1 2 1 2 1 Z " fill="#1695E3" transform="translate(434,368)"/>
<path d="" fill="#1A97E2" transform="translate(0,0)"/>
<path d="" fill="#1C96E4" transform="translate(0,0)"/>
<path d="M0 0 C2 1 2 1 2 1 Z " fill="#1996E2" transform="translate(625,280)"/>
<path d="M0 0 C2 1 2 1 2 1 Z " fill="#1595E4" transform="translate(642,272)"/>
<path d="M0 0 C2 1 2 1 2 1 Z " fill="#1697E6" transform="translate(660,264)"/>
<path d="M0 0 C2 1 2 1 2 1 Z " fill="#1597E8" transform="translate(705,243)"/>
<path d="M0 0 C2 1 2 1 2 1 Z " fill="#1B8CCE" transform="translate(851,192)"/>
<path d="" fill="#1B8ACF" transform="translate(0,0)"/>
<path d="" fill="#198AD0" transform="translate(0,0)"/>
<path d="" fill="#1C8BD1" transform="translate(0,0)"/>
<path d="" fill="#1C8BD1" transform="translate(0,0)"/>
<path d="" fill="#1F8CCE" transform="translate(0,0)"/>
<path d="" fill="#1C8BCF" transform="translate(0,0)"/>
<path d="" fill="#1E8DD3" transform="translate(0,0)"/>
<path d="" fill="#1C8ED5" transform="translate(0,0)"/>
<path d="" fill="#1E90D5" transform="translate(0,0)"/>
<path d="" fill="#1D8ED6" transform="translate(0,0)"/>
<path d="" fill="#1D8ACE" transform="translate(0,0)"/>
<path d="" fill="#1C8ED5" transform="translate(0,0)"/>
<path d="" fill="#1D97E2" transform="translate(0,0)"/>
<path d="" fill="#1AA1F3" transform="translate(0,0)"/>
<path d="" fill="#1B9EF0" transform="translate(0,0)"/>
<path d="" fill="#1C94E1" transform="translate(0,0)"/>
<path d="" fill="#1B96E1" transform="translate(0,0)"/>
<path d="" fill="#189EF1" transform="translate(0,0)"/>
<path d="" fill="#1E92D8" transform="translate(0,0)"/>
<path d="" fill="#149EF2" transform="translate(0,0)"/>
<path d="" fill="#1E91DB" transform="translate(0,0)"/>
<path d="" fill="#199BEB" transform="translate(0,0)"/>
<path d="" fill="#1A91D8" transform="translate(0,0)"/>
<path d="" fill="#1A92DA" transform="translate(0,0)"/>
<path d="" fill="#1B9DEC" transform="translate(0,0)"/>
<path d="" fill="#1B93DC" transform="translate(0,0)"/>
<path d="" fill="#179DED" transform="translate(0,0)"/>
<path d="" fill="#16A0F3" transform="translate(0,0)"/>
<path d="" fill="#179EF0" transform="translate(0,0)"/>
<path d="" fill="#169FF2" transform="translate(0,0)"/>
<path d="" fill="#1B9FF0" transform="translate(0,0)"/>
<path d="" fill="#199DEE" transform="translate(0,0)"/>
<path d="" fill="#199FF2" transform="translate(0,0)"/>
<path d="" fill="#159FF2" transform="translate(0,0)"/>
<path d="" fill="#16A0F5" transform="translate(0,0)"/>
<path d="" fill="#1D98E2" transform="translate(0,0)"/>
<path d="" fill="#15A0F4" transform="translate(0,0)"/>
<path d="" fill="#19A1F2" transform="translate(0,0)"/>
<path d="" fill="#1D9BE6" transform="translate(0,0)"/>
<path d="" fill="#1992DC" transform="translate(0,0)"/>
<path d="" fill="#18A0EF" transform="translate(0,0)"/>
<path d="" fill="#1592E3" transform="translate(0,0)"/>
<path d="" fill="#1794E2" transform="translate(0,0)"/>
<path d="" fill="#1994E1" transform="translate(0,0)"/>
<path d="" fill="#1BA0F2" transform="translate(0,0)"/>
<path d="" fill="#1894E4" transform="translate(0,0)"/>
<path d="" fill="#1995E3" transform="translate(0,0)"/>
<path d="" fill="#1AA0F2" transform="translate(0,0)"/>
<path d="" fill="#1A8CD3" transform="translate(0,0)"/>
<path d="" fill="#1BA0F1" transform="translate(0,0)"/>
<path d="" fill="#1894E2" transform="translate(0,0)"/>
<path d="" fill="#1AA0F1" transform="translate(0,0)"/>
<path d="" fill="#18A0F0" transform="translate(0,0)"/>
<path d="" fill="#1691E1" transform="translate(0,0)"/>
<path d="" fill="#1A9AEB" transform="translate(0,0)"/>
<path d="" fill="#1999E9" transform="translate(0,0)"/>
<path d="" fill="#199BE9" transform="translate(0,0)"/>
<path d="" fill="#1995E5" transform="translate(0,0)"/>
<path d="" fill="#1C90D8" transform="translate(0,0)"/>
<path d="" fill="#199DEE" transform="translate(0,0)"/>
<path d="" fill="#1A93E0" transform="translate(0,0)"/>
<path d="" fill="#1A95E6" transform="translate(0,0)"/>
<path d="" fill="#159FF5" transform="translate(0,0)"/>
<path d="" fill="#179FF1" transform="translate(0,0)"/>
<path d="" fill="#1791E0" transform="translate(0,0)"/>
<path d="" fill="#169CED" transform="translate(0,0)"/>
<path d="" fill="#189FF0" transform="translate(0,0)"/>
<path d="" fill="#1BA1F3" transform="translate(0,0)"/>
<path d="" fill="#179FF3" transform="translate(0,0)"/>
<path d="" fill="#1AA1F2" transform="translate(0,0)"/>
<path d="" fill="#179FF1" transform="translate(0,0)"/>
<path d="" fill="#1B9FF0" transform="translate(0,0)"/>
<path d="" fill="#169EF1" transform="translate(0,0)"/>
<path d="" fill="#1995E7" transform="translate(0,0)"/>
<path d="" fill="#189FF5" transform="translate(0,0)"/>
<path d="" fill="#1797E7" transform="translate(0,0)"/>
<path d="" fill="#1699EA" transform="translate(0,0)"/>
<path d="" fill="#199FF4" transform="translate(0,0)"/>
<path d="" fill="#179EF0" transform="translate(0,0)"/>
<path d="" fill="#179DF3" transform="translate(0,0)"/>
<path d="" fill="#1D96E4" transform="translate(0,0)"/>
<path d="" fill="#1697EA" transform="translate(0,0)"/>
<path d="" fill="#1A9FF3" transform="translate(0,0)"/>
<path d="" fill="#1B95E4" transform="translate(0,0)"/>
<path d="" fill="#159EF0" transform="translate(0,0)"/>
<path d="" fill="#1999E9" transform="translate(0,0)"/>
<path d="" fill="#1897EA" transform="translate(0,0)"/>
<path d="" fill="#1B9FF3" transform="translate(0,0)"/>
<path d="" fill="#1F91DC" transform="translate(0,0)"/>
<path d="" fill="#199DF0" transform="translate(0,0)"/>
<path d="" fill="#199FF3" transform="translate(0,0)"/>
<path d="" fill="#1F92DB" transform="translate(0,0)"/>
<path d="" fill="#1A93E2" transform="translate(0,0)"/>
<path d="" fill="#179AEB" transform="translate(0,0)"/>
<path d="" fill="#1894E3" transform="translate(0,0)"/>
<path d="" fill="#17A0F2" transform="translate(0,0)"/>
<path d="" fill="#1A99EA" transform="translate(0,0)"/>
<path d="" fill="#2090D4" transform="translate(0,0)"/>
<path d="" fill="#179FF1" transform="translate(0,0)"/>
<path d="" fill="#19A0F0" transform="translate(0,0)"/>
<path d="" fill="#199AED" transform="translate(0,0)"/>
<path d="" fill="#19A0F4" transform="translate(0,0)"/>
<path d="" fill="#19A0EE" transform="translate(0,0)"/>
<path d="" fill="#1E99E2" transform="translate(0,0)"/>
<path d="" fill="#1C98E7" transform="translate(0,0)"/>
<path d="" fill="#159DF2" transform="translate(0,0)"/>
<path d="" fill="#199EEF" transform="translate(0,0)"/>
<path d="" fill="#199DED" transform="translate(0,0)"/>
<path d="" fill="#19A0F2" transform="translate(0,0)"/>
<path d="" fill="#19A1F5" transform="translate(0,0)"/>
<path d="" fill="#19A1F4" transform="translate(0,0)"/>
<path d="" fill="#1B9FF0" transform="translate(0,0)"/>
<path d="" fill="#169DF1" transform="translate(0,0)"/>
<path d="" fill="#199DF1" transform="translate(0,0)"/>
<path d="" fill="#1B96E4" transform="translate(0,0)"/>
<path d="" fill="#149EF7" transform="translate(0,0)"/>
<path d="" fill="#15A1F6" transform="translate(0,0)"/>
<path d="" fill="#15A0F6" transform="translate(0,0)"/>
<path d="" fill="#1A95E5" transform="translate(0,0)"/>
<path d="" fill="#189CF0" transform="translate(0,0)"/>
<path d="" fill="#189DEF" transform="translate(0,0)"/>
<path d="" fill="#1B9EE9" transform="translate(0,0)"/>
<path d="" fill="#199DF0" transform="translate(0,0)"/>
<path d="" fill="#199DEF" transform="translate(0,0)"/>
<path d="" fill="#189DF1" transform="translate(0,0)"/>
<path d="" fill="#1A97E4" transform="translate(0,0)"/>
<path d="" fill="#189EF0" transform="translate(0,0)"/>
<path d="" fill="#189BEF" transform="translate(0,0)"/>
<path d="" fill="#1A9EF1" transform="translate(0,0)"/>
<path d="" fill="#159AF0" transform="translate(0,0)"/>
<path d="" fill="#179CF0" transform="translate(0,0)"/>
<path d="" fill="#169BF2" transform="translate(0,0)"/>
<path d="" fill="#159BF1" transform="translate(0,0)"/>
<path d="" fill="#1A9CEF" transform="translate(0,0)"/>
<path d="" fill="#1A9CEF" transform="translate(0,0)"/>
<path d="" fill="#179CF0" transform="translate(0,0)"/>
<path d="" fill="#1B9EEF" transform="translate(0,0)"/>
<path d="" fill="#1B98E5" transform="translate(0,0)"/>
<path d="" fill="#1C98E2" transform="translate(0,0)"/>
<path d="" fill="#1B98E6" transform="translate(0,0)"/>
<path d="" fill="#1C9CED" transform="translate(0,0)"/>
<path d="" fill="#1999EA" transform="translate(0,0)"/>
<path d="" fill="#2090D8" transform="translate(0,0)"/>
<path d="" fill="#1C95E2" transform="translate(0,0)"/>
<path d="" fill="#1C96E5" transform="translate(0,0)"/>
<path d="" fill="#2090D5" transform="translate(0,0)"/>
<path d="" fill="#1B94E0" transform="translate(0,0)"/>
<path d="" fill="#1C98E4" transform="translate(0,0)"/>
<path d="" fill="#1995E3" transform="translate(0,0)"/>
<path d="" fill="#1A94E3" transform="translate(0,0)"/>
<path d="" fill="#1B95E2" transform="translate(0,0)"/>
<path d="" fill="#1691E0" transform="translate(0,0)"/>
<path d="" fill="#1B95E0" transform="translate(0,0)"/>
<path d="" fill="#1694E4" transform="translate(0,0)"/>
<path d="" fill="#1693E2" transform="translate(0,0)"/>
<path d="" fill="#1B96E0" transform="translate(0,0)"/>
<path d="" fill="#1795E2" transform="translate(0,0)"/>
<path d="" fill="#1997E2" transform="translate(0,0)"/>
<path d="" fill="#1D96E1" transform="translate(0,0)"/>
<path d="" fill="#1694E4" transform="translate(0,0)"/>
<path d="" fill="#1594E3" transform="translate(0,0)"/>
<path d="" fill="#1594E4" transform="translate(0,0)"/>
<path d="" fill="#1696E3" transform="translate(0,0)"/>
<path d="" fill="#1795E3" transform="translate(0,0)"/>
<path d="" fill="#1692E1" transform="translate(0,0)"/>
<path d="" fill="#1D95E1" transform="translate(0,0)"/>
<path d="" fill="#1596E7" transform="translate(0,0)"/>
<path d="" fill="#1B93E0" transform="translate(0,0)"/>
<path d="" fill="#1797E5" transform="translate(0,0)"/>
<path d="" fill="#1595E4" transform="translate(0,0)"/>
<path d="" fill="#1492E2" transform="translate(0,0)"/>
<path d="" fill="#1794E1" transform="translate(0,0)"/>
<path d="" fill="#1496E4" transform="translate(0,0)"/>
<path d="" fill="#1694E2" transform="translate(0,0)"/>
<path d="" fill="#1392E2" transform="translate(0,0)"/>
<path d="" fill="#1895E4" transform="translate(0,0)"/>
<path d="" fill="#1A95E4" transform="translate(0,0)"/>
<path d="" fill="#1493E3" transform="translate(0,0)"/>
<path d="" fill="#1594E3" transform="translate(0,0)"/>
<path d="" fill="#1590DF" transform="translate(0,0)"/>
<path d="" fill="#1694E3" transform="translate(0,0)"/>
<path d="" fill="#1D96E3" transform="translate(0,0)"/>
<path d="" fill="#1A96E4" transform="translate(0,0)"/>
<path d="" fill="#1A95E3" transform="translate(0,0)"/>
<path d="" fill="#1696E3" transform="translate(0,0)"/>
<path d="" fill="#1897E4" transform="translate(0,0)"/>
<path d="" fill="#1895E1" transform="translate(0,0)"/>
<path d="" fill="#1594E2" transform="translate(0,0)"/>
<path d="" fill="#1796E5" transform="translate(0,0)"/>
<path d="" fill="#1895E3" transform="translate(0,0)"/>
<path d="" fill="#1492E2" transform="translate(0,0)"/>
<path d="" fill="#1596E6" transform="translate(0,0)"/>
<path d="" fill="#1795E5" transform="translate(0,0)"/>
<path d="" fill="#1493E5" transform="translate(0,0)"/>
<path d="" fill="#1494E4" transform="translate(0,0)"/>
<path d="" fill="#1392E2" transform="translate(0,0)"/>
<path d="" fill="#1592E3" transform="translate(0,0)"/>
<path d="" fill="#1495E5" transform="translate(0,0)"/>
<path d="" fill="#1995E3" transform="translate(0,0)"/>
<path d="" fill="#1394E4" transform="translate(0,0)"/>
<path d="" fill="#1694E5" transform="translate(0,0)"/>
<path d="" fill="#1695E6" transform="translate(0,0)"/>
<path d="" fill="#1A97E3" transform="translate(0,0)"/>
<path d="" fill="#1495E4" transform="translate(0,0)"/>
<path d="" fill="#1C94E4" transform="translate(0,0)"/>
<path d="" fill="#1894E3" transform="translate(0,0)"/>
<path d="" fill="#1897E6" transform="translate(0,0)"/>
<path d="" fill="#1596E5" transform="translate(0,0)"/>
<path d="" fill="#1795E3" transform="translate(0,0)"/>
<path d="" fill="#1495E6" transform="translate(0,0)"/>
<path d="" fill="#1A91DE" transform="translate(0,0)"/>
<path d="" fill="#1697E6" transform="translate(0,0)"/>
<path d="" fill="#1797E5" transform="translate(0,0)"/>
<path d="" fill="#1A98E2" transform="translate(0,0)"/>
<path d="" fill="#1593E2" transform="translate(0,0)"/>
<path d="" fill="#1792DE" transform="translate(0,0)"/>
<path d="" fill="#1998E4" transform="translate(0,0)"/>
<path d="" fill="#1593E2" transform="translate(0,0)"/>
<path d="" fill="#1493E0" transform="translate(0,0)"/>
<path d="" fill="#1592E0" transform="translate(0,0)"/>
<path d="" fill="#1791DF" transform="translate(0,0)"/>
<path d="" fill="#1691DE" transform="translate(0,0)"/>
<path d="" fill="#1B95DD" transform="translate(0,0)"/>
<path d="" fill="#1B8BD0" transform="translate(0,0)"/>
<path d="" fill="#1A8ACF" transform="translate(0,0)"/>
</svg>
